<svg width="1280" height="1280" viewBox="0 0 1280 1280" fill="none" xmlns="http://www.w3.org/2000/svg">
<g clip-path="url(#clip0_54_497)">
<path d="M437.6 435.2C438.68 435.2 439.752 435.192 440.832 435.184C443.736 435.176 446.648 435.176 449.552 435.168C451.376 435.168 453.2 435.16 455.024 435.16C460.744 435.152 466.464 435.144 472.224 435.136C478.792 435.136 485.344 435.12 491.904 435.096C497.008 435.08 502.144 435.072 507.184 435.072C510.216 435.072 513.256 435.064 516.304 435.048C519.168 435.04 522.032 435.032 524.864 435.04C526.4 435.04 527.928 435.032 529.456 435.024C539.136 435.064 548.336 436.96 557.616 439.976C558.256 440.184 558.888 440.392 559.544 440.608C583.944 448.688 600.984 463.728 612.904 486.368C615.744 492.152 617.32 497.888 618.76 504.128C618.936 504.784 619.12 505.44 619.304 506.12C622.856 519.48 618.656 533.72 612.264 545.64C602.984 561.16 588.744 575.4 572.344 583.32C573.168 585.992 574.024 586.568 576.504 587.984C577.576 588.488 578.656 588.984 579.744 589.472C591.504 595.096 603.584 602.352 611.584 612.912C612.072 613.52 612.56 614.128 613.072 614.752C621.392 625.552 626.992 638.432 627.552 652.112C627.616 653.152 627.688 654.184 627.76 655.256C628.72 674.856 620.72 691.896 608.32 706.536C607.968 706.952 607.616 707.376 607.256 707.8C593.656 723.8 575.816 732.52 555.496 736.92C554.872 737.072 554.256 737.216 553.624 737.368C540.824 740.24 527.304 739.44 514.344 739.432C511.584 739.424 508.832 739.432 506.104 739.432C501.48 739.432 496.824 739.432 492.264 739.424H476.344C471.752 739.432 467.144 739.432 462.584 739.432C459.848 739.424 457.12 739.424 454.424 739.432C424.744 739.448 424.744 739.448 417.224 736.12C417.184 698.68 417.16 661.24 417.136 624.12V610.84V608.176C417.128 593.936 417.112 579.696 417.096 565.456C417.08 550.816 417.072 536.256 417.072 521.616C417.072 512.576 417.064 503.536 417.048 494.576C417.04 488.392 417.04 482.256 417.04 476.016C417.04 472.448 417.04 468.88 417.032 465.296C417.024 462.032 417.024 458.768 417.024 455.536C417.032 454.36 417.024 453.176 417.024 451.992C417.016 450.384 417.016 448.776 417.024 447.176V444.472C417.24 441.712 417.576 438.432 419.624 436.392C425.632 435.496 431.624 435.472 437.624 435.464L437.6 435.2Z" fill="white"/>
<path d="M135.2 435.2C135.792 435.2 136.376 435.192 136.984 435.192C138.96 435.176 140.936 435.184 142.912 435.192C144.328 435.192 145.744 435.184 147.16 435.184C151.008 435.168 154.864 435.176 158.68 435.184C162.72 435.192 166.76 435.184 170.76 435.176C177.552 435.176 184.36 435.184 191.16 435.192C198.992 435.208 206.84 435.2 214.68 435.184C221.408 435.176 228.12 435.176 234.84 435.184C238.856 435.184 242.84 435.184 246.84 435.176C250.624 435.168 254.408 435.176 258.2 435.192C259.584 435.192 260.968 435.192 262.344 435.184C273.224 435.152 283.464 436.248 293.784 440.056C294.344 440.256 294.896 440.456 295.472 440.664C310.352 446.232 326.992 454.664 335.792 468.344C336.416 468.952 337.04 469.56 337.68 470.184C339.896 472.448 341.616 474.832 343.296 477.496C343.6 477.984 343.912 478.472 344.224 478.968C351.512 490.648 356.224 502.488 358.464 516.088C358.6 516.92 358.744 517.76 358.88 518.624C359.904 525.392 360.488 531.984 359.016 538.704C358.92 539.368 358.824 540.032 358.728 540.72C357.344 550.4 354.736 560.4 350.248 569.12C349.824 569.968 349.824 569.968 349.384 570.84C339.944 588.76 323.144 606.6 303.864 613.88C301.464 614.56 299.128 615.04 296.664 615.48C297.096 619.032 297.96 621.576 299.712 624.68C300.472 626.048 300.472 626.048 301.248 627.44C301.536 627.952 301.824 628.464 302.12 628.992C303.96 632.272 305.76 635.576 307.568 638.912C308.176 640.024 308.176 640.024 308.8 641.168C311.952 646.944 314.992 652.768 318 658.608C322.44 667.248 327.12 675.648 331.92 684.048C334.832 689.096 337.624 694.128 340.16 699.408C341.264 701.528 342.44 703.52 343.688 705.552C346.52 710.232 348.928 715.072 351.304 720.032C351.736 720.896 352.168 721.76 352.608 722.648C354.856 727.288 356.424 731.128 356.656 736.328C343.696 741.104 329.856 740.52 316.336 740.192C313.464 740.128 310.592 740.08 307.696 740.032C305.848 739.992 304 739.952 302.16 739.92C301.312 739.904 300.464 739.888 299.592 739.872C287.592 739.56 287.592 739.56 283.512 736.472C282.168 734.656 281.088 732.88 280.064 730.872C279.488 729.744 279.488 729.744 278.896 728.6C278.496 727.8 278.088 727 277.672 726.176C276.816 724.504 275.96 722.84 275.104 721.168C274.68 720.344 274.264 719.52 273.832 718.672C272.192 715.488 270.512 712.336 268.824 709.152C265.8 703.464 262.896 697.712 260.024 691.952C257.864 687.592 255.688 683.232 253.52 678.832C253.272 678.344 253.032 677.856 252.776 677.352C249.816 671.408 246.8 665.512 243.656 659.592C239.896 652.536 236.456 645.352 233.016 638.152C229.168 628.312 229.168 628.312 222.216 621.112C218.24 620.912 218.24 620.912 214.352 621.512C212.448 621.952 210.76 622 208.808 621.992C208.096 621.992 207.384 621.984 206.648 621.984C205.912 621.976 205.176 621.968 204.416 621.96C203.664 621.96 202.92 621.952 202.144 621.952C200.304 621.944 198.464 621.928 196.616 621.912C195.976 624.736 195.72 627.328 195.728 630.232V632.816C195.728 633.752 195.736 634.68 195.736 635.632C195.736 636.624 195.744 637.608 195.744 638.624C195.744 640.76 195.752 642.896 195.76 645.04C195.768 648.432 195.776 651.816 195.776 655.2C195.784 663.016 195.8 670.8 195.824 678.64C195.84 685.784 195.848 692.96 195.856 700.08C195.864 703.448 195.872 706.808 195.88 710.16C195.888 712.76 195.888 715.352 195.896 717.952C195.896 718.872 195.904 719.792 195.904 720.736C195.912 735.776 195.912 735.776 193.416 739.456C191.12 739.696 188.992 739.776 186.688 739.744C185.656 739.752 185.656 739.752 184.608 739.752C182.344 739.752 180.08 739.728 177.816 739.704C176.256 739.696 174.704 739.688 173.144 739.68C163.224 739.608 153.384 739.32 143.544 738.76C142.68 738.712 142.68 738.712 141.808 738.664C131.488 738.08 131.488 738.08 127.808 736.256C126.704 734.056 126.904 732.296 126.904 729.832C126.896 728.28 126.896 728.28 126.896 726.696V723.216C126.896 721.992 126.888 720.768 126.888 719.544C126.88 716.168 126.88 712.792 126.88 709.384C126.88 705.744 126.872 702.112 126.864 698.504C126.856 690.552 126.848 682.584 126.848 674.664C126.848 669.704 126.84 664.744 126.84 659.784C126.832 646.024 126.824 632.344 126.816 618.584V615.92V613.256V607.896V605.208C126.816 590.808 126.8 576.488 126.784 562.088C126.76 547.368 126.752 532.648 126.752 517.848C126.752 509.528 126.744 501.288 126.728 493.048C126.72 486 126.712 478.968 126.72 471.928C126.72 468.328 126.72 464.736 126.712 461.128C126.704 457.832 126.704 454.544 126.712 451.288C126.712 450.088 126.712 448.896 126.704 447.704C126.696 446.088 126.704 444.472 126.712 442.856V440.128C127.008 437.928 127.008 437.928 128.072 436.44C130.304 434.92 132.488 435.224 135.144 435.224L135.2 435.2Z" fill="white"/>
<path d="M992.8 435.2H995.952H1002.5C1005.29 435.208 1008.07 435.2 1010.82 435.2C1013.5 435.192 1016.18 435.2 1018.82 435.2C1019.82 435.2 1020.81 435.2 1021.83 435.192C1023.23 435.2 1023.23 435.2 1024.66 435.2C1025.46 435.2 1026.28 435.208 1027.12 435.208C1031.88 435.408 1031.88 435.408 1034.25 436.104C1036.46 439.808 1036.13 444.008 1036.18 448.184C1036.19 449 1036.21 449.808 1036.22 450.64C1036.27 453.336 1036.31 456.032 1036.34 458.72C1036.38 460.632 1036.41 462.544 1036.43 464.464C1036.74 484.624 1036.77 504.704 1036.76 524.864V540.384C1036.76 549.584 1036.76 558.704 1036.75 567.904V592.864C1036.76 602.624 1036.76 612.384 1036.76 622.064V637.424V651.744C1036.75 653.496 1036.75 655.256 1036.76 657.008C1036.76 659.392 1036.76 661.776 1036.75 664.16C1036.75 665.208 1036.75 665.208 1036.76 666.28C1036.75 668.96 1036.7 671.168 1035.85 673.728C1041.77 673.856 1047.69 673.968 1053.61 674.088C1056.35 674.136 1059.1 674.192 1061.85 674.248C1065.01 674.312 1068.16 674.376 1071.29 674.432C1072.77 674.464 1072.77 674.464 1074.29 674.496C1075.2 674.512 1076.11 674.528 1077.05 674.544C1077.86 674.56 1078.66 674.576 1079.5 674.6C1081.43 674.664 1081.43 674.664 1083.02 673.728C1085.18 673.648 1087.32 673.616 1089.48 673.624H1091.43H1095.52C1097.6 673.632 1099.68 673.624 1101.75 673.624H1105.73C1106.66 673.624 1106.66 673.624 1107.6 673.616C1110.98 673.632 1114.09 673.968 1117.44 674.528C1119.59 674.592 1121.71 674.624 1123.86 674.608H1125.67C1127.56 674.6 1129.46 674.592 1131.34 674.584C1132.63 674.576 1133.92 674.576 1135.21 674.568C1138.35 674.56 1141.5 674.544 1144.65 674.528C1146.62 678.568 1147.35 681.48 1147.34 686.048C1147.34 686.608 1147.34 687.168 1147.34 687.752C1147.34 689.584 1147.33 691.424 1147.31 693.256V697.104C1147.3 699.776 1147.3 702.448 1147.28 705.104C1147.26 708.536 1147.25 711.976 1147.24 715.424C1147.24 718.064 1147.23 720.704 1147.22 723.344C1147.22 724.616 1147.22 725.88 1147.21 727.152C1147.2 728.912 1147.19 730.68 1147.18 732.44C1147.17 733.944 1147.17 733.944 1147.16 735.488C1147.05 737.728 1147.05 737.728 1146.25 738.528C1138.62 739.744 1130.73 739.608 1122.97 739.784C1122.23 739.8 1121.5 739.816 1120.74 739.832C1083.78 740.632 1046.9 740.24 1010.34 739.808C1008.22 739.784 1006.1 739.76 1003.98 739.736C1000.64 739.696 997.304 739.656 993.976 739.608C992.752 739.592 991.528 739.576 990.304 739.56C972.624 739.36 972.624 739.36 969.024 736.928C968.16 734.328 968.128 732.44 968.128 729.704C968.12 728.688 968.12 727.672 968.12 726.624V723.224C968.12 722.024 968.12 720.824 968.112 719.624V709.704C968.112 706.144 968.104 702.584 968.104 698.984C968.096 692.008 968.096 685.064 968.096 678.024C968.096 672.36 968.088 666.664 968.088 660.984C968.08 644.904 968.08 628.824 968.08 612.744V610.112V607.488C968.08 593.408 968.072 579.328 968.064 565.248C968.048 550.848 968.04 536.368 968.048 521.968C968.048 513.888 968.04 505.728 968.032 497.648C968.024 490.744 968.024 483.808 968.032 476.928C968.032 473.408 968.032 469.888 968.024 466.368C968.016 463.144 968.024 459.92 968.024 456.688C968.032 455.52 968.024 454.352 968.024 453.184C968.016 451.6 968.024 450.008 968.032 448.424C968.024 447.544 968.024 446.664 968.024 445.752C968.256 442.832 968.824 440.352 969.824 437.592C975.912 433.536 985.984 435.08 993.104 435.088L992.8 435.2Z" fill="white"/>
<path d="M792 430.4C796.72 433.464 798.496 437.208 800.72 442.24C801.088 443.04 801.456 443.832 801.832 444.648C802.64 446.408 803.448 448.16 804.248 449.92C805.648 452.968 807.064 455.992 808.496 459.04C813.512 469.68 818.496 480.32 823.376 491.04C826.208 497.248 829.088 503.44 832.016 509.6C832.256 510.12 832.504 510.632 832.752 511.168C834.488 514.88 836.224 518.592 837.968 522.288C838.224 522.84 838.488 523.4 838.76 523.976C841.952 530.792 845.152 537.576 848.36 544.376C850.2 548.28 852.024 552.192 853.84 556.136C855.144 558.936 856.464 561.728 857.8 564.536C860.52 570.232 863.224 575.896 865.664 581.736C867.272 585.552 869.024 589.256 870.912 592.936C874.4 599.728 877.448 606.696 880.512 613.736C882.384 617.992 884.296 622.216 886.4 626.376C888.856 631.224 891.072 636.136 893.264 641.096C896.48 648.376 899.736 655.656 903.344 662.696C905.76 667.416 907.92 672.216 910.072 677.096C913.456 684.712 917.008 692.216 920.552 699.816C921.504 701.84 922.464 703.872 923.416 705.896C923.896 706.92 924.384 707.944 924.864 708.968C934.384 729.048 934.384 729.048 934.384 736.808C927.24 739.304 920.304 741.472 912.784 739.208C909.52 737.144 906.816 734.616 903.984 732.008C889.824 721.208 873.504 712.488 856.784 706.408C855.48 705.928 855.48 705.928 854.152 705.44C852.648 704.896 851.152 704.352 849.64 703.816C847.984 703.208 847.984 703.208 846.384 702.408C846.248 694.248 846.128 686.088 846.016 678.008C845.992 676.632 845.976 675.264 845.952 673.888C845.688 655.728 845.552 637.488 845.616 619.328C845.624 617.6 845.624 615.872 845.632 614.144C845.648 606.528 845.68 598.944 845.736 591.264C845.76 588.096 845.768 584.936 845.784 581.744C845.784 580.272 845.8 578.792 845.816 577.32C845.832 575.296 845.84 573.264 845.84 571.24C845.856 570.656 845.864 570.064 845.872 569.456C845.856 565.704 845.176 563.168 843.184 560.016C841.448 558.512 839.824 557.24 837.936 555.968C837.44 555.624 836.944 555.28 836.432 554.92C832.952 552.552 829.4 550.52 825.552 548.768C823.96 548.016 823.96 548.016 821.56 546.416C813.4 547.08 803.4 554.496 797.56 560.016C794.792 564.128 793.968 566.696 794.048 571.776C794.056 572.616 794.056 572.616 794.064 573.48C794.08 575.248 794.12 577.016 794.16 578.784C794.176 579.992 794.192 581.2 794.2 582.408C794.24 585.352 794.296 588.288 794.36 591.208L798.36 592.808C798.384 591.112 798.4 589.408 798.408 587.704C798.424 586.288 798.424 586.288 798.44 584.84C798.528 582.472 798.528 582.472 797.56 580.808C797.264 578.448 797.04 576.128 796.856 573.76C796.792 573.112 796.72 572.464 796.656 571.8C796.408 568.36 796.344 566.944 798.52 564.144C799.264 563.568 800 563 800.76 562.408C801.368 561.88 801.968 561.36 802.592 560.816C807.304 557.016 812.192 553.176 817.552 550.416L819.152 551.216C820.088 554.016 820.04 556.504 820 559.376C820 560.256 820 560.256 819.992 561.16C819.976 563.648 819.96 566.144 819.936 568.632C819.88 575.552 819.928 582.472 820.24 589.352C820.776 601.352 820.856 613.352 820.832 625.352C820.832 627.384 820.824 629.416 820.824 631.448C820.824 636.184 820.816 640.888 820.808 645.688C820.8 651.104 820.8 656.488 820.792 661.928C820.784 673.048 820.768 684.088 820.752 695.208C818.672 695.248 816.584 695.28 814.504 695.304C813.912 695.32 813.32 695.336 812.712 695.352C809.624 695.376 808.184 695.36 805.552 693.608C805.248 692.056 805.248 692.056 805.24 690.12C805.24 689.392 805.232 688.656 805.224 687.904C805.224 687.096 805.224 686.296 805.232 685.464C805.224 684.616 805.224 683.768 805.216 682.896C805.2 680.08 805.2 677.272 805.2 674.416C805.192 672.464 805.176 670.504 805.168 668.552C805.136 663.4 805.12 658.232 805.112 653.112C805.088 644.872 805.056 636.632 805.016 628.392C805 625.512 805 622.64 804.992 619.752C804.984 617.976 804.976 616.2 804.968 614.432C804.968 613.632 804.976 612.84 804.976 612.024C805 605.024 805 605.024 803.152 598.344C801.632 597.384 801.632 597.384 799.952 596.744C798.608 595.888 797.28 595.024 795.952 594.144C792.728 592.088 789.48 590.144 786.112 588.344C784.976 587.736 784.976 587.736 783.816 587.12C781 586.152 779.616 586.304 776.76 587.144C774.744 588.168 772.872 589.2 770.96 590.392C770.432 590.712 769.912 591.04 769.368 591.368C763.152 595.248 756.968 599.448 752.728 605.528V607.928L754.328 609.528H752.728V633.528C743.768 629.032 743.768 629.032 741.528 626.328C733.208 629.416 718.488 635.368 713.448 642.888C712.464 645.488 712.472 647.824 712.408 650.6C712.392 651.168 712.376 651.744 712.36 652.328C712.312 654.16 712.272 655.984 712.24 657.808C712.208 659.008 712.176 660.2 712.144 661.392C712 666.992 711.92 672.592 711.944 678.192C711.96 683.568 711.784 688.912 711.536 694.272C711.496 695.128 711.456 695.992 711.424 696.88C711.328 698.96 711.232 701.04 711.136 703.12C710.664 703.264 710.192 703.408 709.712 703.56C687.152 710.52 666.272 719.32 647.712 734.2C645.88 735.456 644.52 735.32 642.344 735.136C642.72 729.512 644.448 725.056 646.696 719.856C647.072 718.968 647.448 718.088 647.84 717.184C652.072 707.424 656.56 697.824 661.04 688.224C664.864 679.984 668.624 671.744 672.16 663.424C674.272 658.528 676.6 653.744 679 649.024C682.04 643 684.912 636.864 687.8 630.784C688.368 629.584 688.928 628.384 689.496 627.184C693.008 619.704 696.464 612.224 699.896 604.624C702.792 598.288 705.824 591.984 708.856 585.744C712.88 577.424 716.76 569.104 720.536 560.704C722.624 556.016 724.744 551.344 726.864 546.624C727.376 545.488 727.888 544.352 728.4 543.208C731.344 536.672 734.4 530.248 737.6 523.848C739.864 519.368 741.992 514.808 744.104 510.248C745.712 506.768 747.36 503.304 749.008 499.848C749.616 498.584 750.216 497.32 750.816 496.056C751.272 495.096 751.272 495.096 751.736 494.12C757.88 481.24 757.88 481.24 763.816 468.2C764.208 467.328 764.208 467.328 764.6 466.44C764.864 465.848 765.128 465.256 765.4 464.656C767.52 459.896 769.664 455.136 771.832 450.416C772.496 448.952 773.16 447.48 773.816 446.016C782.136 427.776 782.136 427.776 791.976 430.336L792 430.4Z" fill="white"/>
<path d="M135.2 435.2C135.792 435.2 136.376 435.192 136.984 435.192C138.96 435.176 140.936 435.184 142.912 435.192C144.328 435.192 145.744 435.184 147.16 435.184C151.008 435.168 154.864 435.176 158.68 435.184C162.72 435.192 166.76 435.184 170.76 435.176C177.552 435.176 184.36 435.184 191.16 435.192C198.992 435.208 206.84 435.2 214.68 435.184C221.408 435.176 228.12 435.176 234.84 435.184C238.856 435.184 242.84 435.184 246.84 435.176C250.624 435.168 254.408 435.176 258.2 435.192C259.584 435.192 260.968 435.192 262.344 435.184C273.224 435.152 283.464 436.248 293.784 440.056C294.344 440.256 294.896 440.456 295.472 440.664C310.352 446.232 326.992 454.664 335.792 468.344C336.416 468.952 337.04 469.56 337.68 470.184C339.896 472.448 341.616 474.832 343.296 477.496C343.6 477.984 343.912 478.472 344.224 478.968C351.512 490.648 356.224 502.488 358.464 516.088C358.6 516.92 358.744 517.76 358.88 518.624C359.904 525.392 360.488 531.984 359.016 538.704C358.92 539.368 358.824 540.032 358.728 540.72C357.344 550.4 354.736 560.4 350.248 569.12C349.824 569.968 349.824 569.968 349.384 570.84C341.984 584.92 331.064 596.76 318.104 605.8C317.552 606.184 317 606.576 316.432 606.968C313.656 608.864 311.072 610.472 307.872 611.552C307.872 609.952 307.872 609.952 309.472 608.352L311.072 607.552C310.856 606.592 310.64 605.64 310.424 604.656C310.048 601.672 310.184 601.28 311.976 598.6C312.728 597.84 313.496 597.088 314.272 596.352C314.848 595.712 315.424 595.064 316.024 594.4C318.024 592.576 319.984 591.16 322.224 589.656C325.832 587.176 328.432 584.624 331.104 581.176C331.552 580.616 332.008 580.056 332.472 579.48C333.912 577.664 335.32 575.832 336.704 573.976C337.336 573.136 337.336 573.136 337.984 572.28C343.288 564.856 345.832 556.52 347.104 547.56C347.24 546.88 347.368 546.192 347.504 545.488C349.32 533.088 349.592 520.368 345.28 508.448C344.68 506.664 344.312 504.92 343.952 503.08C343.336 500.16 342.328 497.744 340.904 495.104C339.848 493.008 338.968 490.856 338.088 488.68C333.136 476.68 326.168 466.6 314.408 460.52C312.24 459.336 310.304 457.936 308.32 456.472C306.64 455.256 304.864 454.216 303.072 453.168L300.672 451.568L299.072 452.368C297.704 451.976 297.704 451.976 296.024 451.32C292.152 449.952 288.336 449.336 284.264 448.792C282.048 448.456 279.888 448.048 277.688 447.584C273.352 446.704 269.048 446.184 264.648 445.768C263.536 445.648 263.536 445.648 262.392 445.52C258.12 445.112 254.616 445.272 250.472 446.336C243.12 448.128 235.352 447.696 227.832 447.672C225.824 447.672 223.824 447.672 221.824 447.68C220.528 447.68 219.24 447.68 217.944 447.672C217.36 447.68 216.768 447.68 216.16 447.68C212.288 447.664 208.568 447.312 204.72 446.768V445.968L187.92 444.368L187.12 445.968C186.4 445.96 186.4 445.96 185.672 445.96C180.672 445.92 175.672 445.896 170.712 445.88C168.848 445.872 166.984 445.864 165.12 445.848C162.44 445.832 159.76 445.816 157.04 445.816C156.216 445.808 155.384 445.792 154.528 445.784C149.512 445.784 145.248 446.088 140.688 448.368C137.68 453.856 138.232 460.768 138.248 466.848V468.744C138.272 475.488 138.448 482.184 138.632 488.984C138.936 500.344 139.144 511.624 139.088 522.984C139.032 534.184 139.232 545.384 139.488 556.664C139.736 567.704 139.976 578.744 139.992 589.784C139.992 590.728 139.992 591.68 140 592.656C139.992 597.944 139.712 603.136 139.272 608.416C139.024 611.744 138.968 615.048 138.992 618.416C138.984 619.016 138.984 619.616 138.976 620.232C138.984 623.608 139.28 626.736 139.888 630.072C140.12 633.856 139.88 637.592 139.496 641.352C139.072 645.872 138.944 650.392 138.888 654.872C138.864 656.528 138.84 658.176 138.816 659.832C138.776 662.392 138.736 664.952 138.704 667.52C138.672 670.016 138.632 672.52 138.592 675.024C138.584 675.776 138.576 676.536 138.568 677.32C138.496 681.504 137.992 685.232 136.984 689.32C136.6 691.352 136.944 692.896 137.488 694.872C137.536 696.288 137.536 697.712 137.512 699.128C137.496 700.336 137.496 700.336 137.48 701.568C137.464 702.408 137.448 703.256 137.44 704.12C136.976 717.48 136.976 717.48 142.288 729.24C148.752 732.728 156.848 732.984 163.888 731.64L165.488 730.84C167.256 730.784 169.024 730.776 170.792 730.792C171.736 730.8 172.688 730.808 173.672 730.816C174.4 730.824 175.136 730.832 175.888 730.84L176.688 729.24H179.088C182.776 725.256 183.32 721.08 183.256 715.8V713.944C183.248 711.92 183.232 709.904 183.216 707.88C183.208 706.464 183.208 705.056 183.208 703.64C183.192 699.928 183.176 696.208 183.152 692.52C183.12 686.584 183.096 680.68 183.072 674.68C183.064 672.616 183.056 670.552 183.04 668.488C183.032 667.208 183.032 665.928 183.024 664.648C183.016 663.8 183.016 663.8 183.008 662.928C183 658.848 183.368 654.848 183.888 650.848L185.488 654.048C185.608 653.544 185.72 653.048 185.848 652.528C186.392 650.52 186.96 648.712 187.888 646.848C190.44 645.6 190.44 645.6 192.688 645.248L193.488 648.448L195.088 645.248C195.976 661.088 196.016 676.928 195.992 692.768V703.728C196 706.576 196 709.416 195.992 712.288C195.992 713.632 195.992 714.976 196 716.32C196.016 735.92 196.016 735.92 193.488 739.68C191.192 739.92 189.064 740 186.76 739.968C185.728 739.976 185.728 739.976 184.68 739.976C182.416 739.976 180.152 739.952 177.888 739.928C176.328 739.92 174.776 739.912 173.216 739.904C163.296 739.832 153.456 739.544 143.616 738.984C142.752 738.936 142.752 738.936 141.88 738.888C131.56 738.304 131.56 738.304 127.88 736.48C126.776 734.28 126.976 732.52 126.976 730.056C126.968 728.504 126.968 728.504 126.968 726.92V723.44C126.968 722.216 126.96 720.992 126.96 719.768C126.952 716.392 126.952 713.016 126.952 709.608C126.952 705.968 126.944 702.336 126.936 698.728C126.928 690.776 126.92 682.808 126.92 674.888C126.92 669.928 126.912 664.968 126.912 660.008C126.904 646.248 126.896 632.568 126.888 618.808V616.144V613.48V608.12V605.432C126.888 591.032 126.872 576.712 126.856 562.312C126.832 547.592 126.824 532.872 126.824 518.072C126.824 509.752 126.816 501.512 126.8 493.272C126.792 486.224 126.784 479.192 126.792 472.152C126.792 468.552 126.792 464.96 126.784 461.352C126.776 458.056 126.776 454.768 126.784 451.512C126.784 450.312 126.784 449.12 126.776 447.928C126.768 446.312 126.776 444.696 126.784 443.08V440.352C127.08 438.152 127.08 438.152 128.144 436.664C130.376 435.144 132.56 435.448 135.216 435.448L135.2 435.2Z" fill="white"/>
<path d="M437.6 435.2C438.68 435.2 439.752 435.192 440.832 435.184C443.736 435.176 446.648 435.176 449.552 435.168C451.376 435.168 453.2 435.16 455.024 435.16C460.744 435.152 466.464 435.144 472.224 435.136C478.792 435.136 485.344 435.12 491.904 435.096C497.008 435.08 502.144 435.072 507.184 435.072C510.216 435.072 513.256 435.064 516.304 435.048C519.168 435.04 522.032 435.032 524.864 435.04C526.4 435.04 527.928 435.032 529.456 435.024C539.136 435.064 548.336 436.96 557.616 439.976C558.256 440.184 558.888 440.392 559.544 440.608C583.944 448.688 600.984 463.728 612.904 486.368C615.744 492.152 617.32 497.888 618.76 504.128C618.936 504.784 619.12 505.44 619.304 506.12C622.856 519.48 618.656 533.72 612.264 545.64C605.52 556.92 596.104 567.96 585.144 575.32H583.544L584.344 572.12H585.944V568.92C586.456 568.776 586.968 568.624 587.488 568.472C588.032 568.088 588.584 567.712 589.144 567.32C589.24 566.448 589.336 565.568 589.44 564.672C590.096 560.792 591.68 560.048 594.744 557.72C595.584 556.408 596.384 555.08 597.144 553.72C597.816 552.912 598.496 552.104 599.192 551.272C601.56 548.416 602.536 546.496 603.488 542.952C604.344 540.152 604.344 540.152 605.64 538.6C607.056 536.48 606.824 534.84 606.72 532.36C606.744 530.392 607.088 528.712 607.544 526.8C609.216 519.08 609.616 508.72 606.288 501.36C605.144 498.512 605.048 497.104 605.144 494.112C605.312 486.304 600.92 480.592 596.344 474.512L593.944 472.912V471.312H592.344V469.712L589.144 468.112V466.512L585.944 465.712V464.112C585.496 463.896 585.048 463.68 584.592 463.464C581.72 461.992 579.024 460.304 576.352 458.512V456.912C575.56 456.648 574.768 456.384 573.952 456.112L572.352 454.512C567.536 451.488 563.232 450.064 557.552 449.824C555.472 449.712 553.544 449.368 551.52 448.912V447.312C551.008 447.472 550.496 447.624 549.968 447.784C546.576 448.24 543.6 447.56 540.208 446.968C529.648 445.296 519.248 445.472 508.608 445.616C505.736 445.64 502.856 445.664 499.968 445.688C498.192 445.696 496.424 445.72 494.648 445.744C493.856 445.752 493.064 445.76 492.24 445.768C491.2 445.776 491.2 445.776 490.136 445.792C488.32 445.712 486.808 445.376 485.056 444.912C483.104 444.88 481.152 444.88 479.2 444.912C474.776 444.96 470.4 444.84 466 444.512C452 443.504 440.16 444.408 428.8 453.472C427.128 454.72 425.368 455.344 423.432 456.096C421.608 457.712 421.608 457.712 420.232 459.296L419.432 457.696C419.408 466.096 419.4 474.496 419.384 482.976C419.384 486.888 419.376 490.8 419.368 494.736C419.328 511.536 419.312 528.176 420.232 544.976H421.032C421.96 552.448 422.072 559.936 422.208 567.456C422.32 573.04 422.472 578.576 423.224 584.096C424.784 595.696 424.44 607.376 424.384 619.056C424.376 621.504 424.376 623.96 424.376 626.408C424.376 628.776 424.376 631.152 424.368 633.52C424.368 634.648 424.36 635.776 424.36 636.904C424.36 638.464 424.352 640.032 424.344 641.592C424.344 642.48 424.336 643.368 424.336 644.288C424.24 646.288 423.928 647.856 423.432 649.776C423.296 651.44 423.192 653.104 423.12 654.768C423.072 655.776 423.024 656.784 422.976 657.824C422.92 658.92 422.872 660.016 422.824 661.112C422.776 662.24 422.72 663.368 422.672 664.488C422.528 667.448 422.392 670.4 422.264 673.368C422.128 676.384 421.984 679.408 421.84 682.408C421.568 688.328 421.296 694.248 421.032 700.168H420.232L419.432 708.168L421.032 708.968V712.968C421.696 713.24 421.696 713.24 422.376 713.52C425.984 715.568 428.072 718.016 429.576 721.84C430.928 724.72 432.272 725.728 435.176 726.992C438.472 728.104 441.328 728.456 444.776 728.152C446.616 728.192 446.616 728.192 448.928 728.984C453.592 730.408 458.528 729.928 463.328 729.84C475.328 729.672 475.328 729.672 481.008 730.592V728.992H492.208V729.792L503.408 730.592L501.008 732.992C502.424 732.944 503.84 732.872 505.256 732.792C506.048 732.752 506.832 732.72 507.648 732.68C509.912 732.432 509.912 732.432 510.824 730.592C512.208 728.992 512.208 728.992 514.496 728.568C515.408 728.56 516.32 728.544 517.264 728.536C518.768 728.504 518.768 728.504 520.312 728.464C521.368 728.456 522.416 728.448 523.504 728.44C525.576 728.408 527.64 728.376 529.712 728.336C530.704 728.32 531.688 728.296 532.704 728.28C535.472 728.192 538.16 727.928 540.864 727.576C542.816 727.368 544.736 727.304 546.696 727.256C547.4 727.232 548.104 727.216 548.824 727.192C550.256 727.16 551.688 727.136 553.12 727.12C557.608 726.976 560.912 726.176 564.96 724.184C567.184 723.112 569.472 722.456 571.848 721.792C576.616 720.376 580.648 718.496 585.048 716.096C586.632 715.392 586.632 715.392 589.032 715.392V713.792C589.856 713.384 590.68 712.968 591.528 712.544C594.936 710.592 597.016 708.032 599.432 704.992C600.384 703.832 601.352 702.688 602.328 701.544C602.992 700.752 602.992 700.752 603.664 699.952C605.096 698.528 606.424 697.864 608.232 696.992C610.256 693.624 609.656 691.16 609.032 687.392C608.928 686.192 608.864 684.992 608.832 683.792C608.808 683.24 608.784 682.688 608.768 682.12C609.064 679.92 609.888 678.16 610.792 676.152C617.704 659.272 615.208 641.352 608.864 624.872C607.912 622.664 606.72 620.672 605.432 618.648C604.96 617.904 604.488 617.152 604.008 616.376C602.728 614.384 602.728 614.384 600.232 613.8C599.28 612.152 599.28 612.152 598.632 610.6H596.232C587.832 606.64 580.552 601.96 577.032 593V589C586.952 591.144 595.832 598.36 603.432 604.76C603.864 605.12 604.296 605.48 604.736 605.856C607.288 608.048 609.408 610.328 611.432 613.008C611.92 613.616 612.408 614.224 612.92 614.848C621.24 625.648 626.84 638.528 627.4 652.208C627.464 653.248 627.536 654.28 627.608 655.352C628.568 674.952 620.568 691.992 608.168 706.632C607.816 707.048 607.464 707.472 607.104 707.896C593.504 723.896 575.664 732.616 555.344 737.016C554.72 737.168 554.104 737.312 553.472 737.464C540.672 740.336 527.152 739.536 514.192 739.528C511.432 739.52 508.68 739.528 505.952 739.528C501.328 739.528 496.672 739.528 492.112 739.52H476.192C471.6 739.528 466.992 739.528 462.432 739.528C459.696 739.52 456.968 739.52 454.272 739.528C424.592 739.544 424.592 739.544 417.072 736.216C417.032 698.776 417.008 661.336 416.984 624.216V610.936V608.272C416.976 594.032 416.96 579.792 416.944 565.552C416.928 550.912 416.92 536.352 416.92 521.712C416.92 512.672 416.912 503.632 416.896 494.672C416.888 488.488 416.888 482.352 416.888 476.112C416.888 472.544 416.888 468.976 416.88 465.392C416.872 462.128 416.872 458.864 416.872 455.632C416.88 454.456 416.872 453.272 416.872 452.088C416.864 450.48 416.864 448.872 416.872 447.272V444.568C417.088 441.808 417.424 438.528 419.472 436.488C425.48 435.592 431.472 435.568 437.472 435.56L437.6 435.2Z" fill="white"/>
<path d="M208 497.6C208.536 497.592 209.072 497.592 209.616 497.584C211.368 497.568 213.12 497.56 214.872 497.552C215.48 497.544 216.088 497.544 216.712 497.544C219.92 497.528 223.128 497.512 226.312 497.504C229.584 497.496 232.864 497.472 236.152 497.44C238.704 497.416 241.256 497.408 243.808 497.408C245.016 497.4 246.224 497.392 247.432 497.376C259.912 497.232 272.232 498.84 281.832 507.456C289.456 515.256 292.232 524.256 292.152 534.976C291.32 544.896 285.256 552.576 278.312 559.296C273.376 563.336 267.992 563.976 261.832 564.608C259.336 564.792 259.336 564.792 257.736 565.304C255.2 565.856 252.76 565.792 250.16 565.8H248.416C246.512 565.808 244.608 565.8 242.712 565.8H238.752H230.432C226.88 565.792 223.328 565.792 219.792 565.8H211.632H207.704C205.88 565.808 204.056 565.8 202.224 565.8C200.664 565.8 200.664 565.8 199.072 565.792C196.752 565.696 196.752 565.696 195.952 564.896C195.752 563.024 195.608 561.176 195.504 559.296C195.472 558.704 195.432 558.12 195.4 557.512C195.064 551.08 195.112 544.632 195.184 538.232C195.232 533.136 195.232 533.136 194.704 528.072C194.352 525.72 194.352 525.72 195.152 523.32C195.024 522.528 194.888 521.736 194.752 520.92C194.2 517.608 194.584 514.52 194.952 511.16C195.208 508.28 195.144 505.44 195.024 502.52C195.152 500.848 195.152 500.848 196.752 498.448C200.496 497.648 204.184 497.536 208.032 497.504L208 497.6Z" fill="#44527B"/>
<path d="M792 430.4C796.72 433.464 798.496 437.208 800.72 442.24C801.088 443.04 801.456 443.832 801.832 444.648C802.64 446.408 803.448 448.16 804.248 449.92C805.648 452.968 807.064 455.992 808.496 459.04C813.552 469.76 818.576 480.48 823.456 491.36C824.928 494.6 826.408 497.832 828 501.04C828.456 501.976 828.912 502.904 829.384 503.864C829.768 504.616 830.152 505.376 830.552 506.152C831.136 508.064 831.136 508.064 830.448 509.928C830.144 510.368 829.848 510.808 829.536 511.264V509.664L826.336 510.464C826.24 510.008 826.144 509.552 826.04 509.088C825.76 507.8 825.48 506.512 825.184 505.232C824.912 504.024 824.648 502.816 824.416 501.592C824.08 499.92 824.08 499.92 823.136 497.664C822.504 497.44 821.88 497.208 821.232 496.976C818.472 495.776 817.984 494.488 816.688 491.816C815.512 489.424 814.424 487.376 812.752 485.296C810.952 483.032 809.792 480.776 808.536 478.16C806.192 473.336 803.712 468.56 801.128 463.92C799.136 460.248 799.136 460.248 799.136 458.48H797.536C794.336 454.904 794.336 454.904 794.336 452.88C788.768 451.36 788.768 451.36 783.136 452.08C782.312 452.192 781.488 452.312 780.64 452.432C778.192 452.752 778.192 452.752 775.936 454.48C775.2 456.536 775.2 456.536 774.736 458.928C773.92 462.504 773 465.936 771.784 469.408C771.296 470.84 770.832 472.288 770.384 473.736C768.272 480.512 768.272 480.512 766.184 482.856C764.072 485.768 764.336 488.584 764.152 492.136C763.864 495.28 762.968 497.272 761.536 500.08C761.16 501.04 760.776 501.992 760.384 502.976C759.144 505.656 757.792 507.4 755.936 509.68C750.888 516.232 747.376 521.52 746.656 529.92C746.312 532.168 745.944 533.08 744.376 534.68C742.328 536.08 742.328 536.08 739.928 536.88C739.152 538.416 739.152 538.416 738.68 540.328C738.472 541.064 738.264 541.792 738.056 542.544C737.544 544.816 737.28 547.016 737.032 549.328C736.16 555.144 733.344 559.808 730.48 564.848C728.736 567.968 727.504 571.152 726.328 574.528C725.784 575.928 725.232 577.328 724.68 578.728C724.424 579.376 724.168 580.024 723.896 580.688C723.128 582.528 723.128 582.528 722.28 584.144C721.216 586.384 720.888 588.648 720.456 591.072C719.928 592.928 719.928 592.928 718.728 594.808C717.256 597.408 716.976 599.568 716.632 602.528C715.952 608.024 715.952 608.024 715.456 610.088C715.096 612.336 715.256 614.408 715.424 616.664C715.68 620.776 715.84 623.8 713.584 627.384C711.784 629.192 710.072 630.752 707.928 632.144H706.328V633.744C705.416 633.92 705.416 633.92 704.48 634.096C702.264 634.512 702.264 634.512 699.928 635.344V636.944H698.328C698.232 637.368 698.136 637.792 698.04 638.232C696.48 644.072 694.416 649.752 690.632 654.552C689.088 656.792 687.952 659.208 686.776 661.656C680.184 675.256 680.184 675.256 675.096 677.736C674.52 679.048 673.984 680.384 673.496 681.736H671.896V684.936H670.296C668.64 693.256 666.944 703.016 671.896 710.536H679.096V708.936C681.616 707.8 684 707.144 686.696 706.632C689.952 705.936 691.928 704.976 694.296 702.536C695.136 701.224 695.936 699.896 696.696 698.536C698.832 695.552 700.744 693.96 703.896 692.136L705.496 689.736H707.096L707.896 684.936L711.096 684.136V703.336C708.44 704.16 705.784 704.984 703.016 705.832C682.856 712.232 664.216 721.112 647.656 734.392C645.824 735.648 644.464 735.512 642.288 735.328C642.664 729.704 644.392 725.248 646.64 720.048C647.016 719.16 647.392 718.28 647.784 717.376C652.016 707.616 656.504 698.016 660.984 688.416C664.808 680.176 668.568 671.936 672.104 663.616C674.216 658.72 676.544 653.936 678.944 649.216C681.984 643.192 684.856 637.056 687.744 630.976C688.312 629.776 688.872 628.576 689.44 627.376C692.952 619.896 696.408 612.416 699.84 604.816C702.736 598.48 705.768 592.176 708.8 585.936C712.824 577.616 716.704 569.296 720.48 560.896C722.568 556.208 724.688 551.536 726.808 546.816C727.32 545.68 727.832 544.544 728.344 543.4C731.288 536.864 734.344 530.44 737.544 524.04C739.808 519.56 741.936 515 744.048 510.44C745.656 506.96 747.304 503.496 748.952 500.04C749.56 498.776 750.16 497.512 750.76 496.248C751.216 495.288 751.216 495.288 751.68 494.312C757.824 481.432 757.824 481.432 763.76 468.392C764.152 467.52 764.152 467.52 764.544 466.632C764.808 466.04 765.072 465.448 765.344 464.848C767.464 460.088 769.608 455.328 771.776 450.608C772.44 449.144 773.104 447.672 773.76 446.208C782.08 427.968 782.08 427.968 791.92 430.528L792 430.4Z" fill="white"/>
<path d="M870.4 628.8C874.624 630.464 877.84 632.48 880.8 636V637.6L882.4 638.4V641.6H884C884.344 642.192 884.696 642.792 885.048 643.4C886.28 645.696 886.28 645.696 888.4 647.152C890.8 649.128 891.464 650.784 892.8 653.6C893.728 655.176 894.68 656.744 895.648 658.304C896.128 659.072 896.608 659.848 897.104 660.64C897.528 661.224 897.96 661.8 898.4 662.4H900C900.768 663.592 900.768 663.592 901.552 664.8C902.096 665.592 902.64 666.384 903.2 667.2H905.6C905.792 667.624 905.976 668.04 906.176 668.48C907.064 670.472 907.96 672.456 908.848 674.448C909.144 675.112 909.44 675.776 909.752 676.456C913.264 684.28 916.904 692.056 920.552 699.816C921.504 701.84 922.464 703.872 923.416 705.896C923.896 706.92 924.384 707.944 924.864 708.968C934.384 729.048 934.384 729.048 934.384 736.808C927.24 739.304 920.304 741.472 912.784 739.208C909.52 737.144 906.816 734.616 903.984 732.008C896 725.904 887.184 720.728 878.384 716.008V712.808C877.808 712.728 877.232 712.64 876.632 712.56C873.28 711.736 870.832 709.904 867.992 708.008H870.392C870.264 707.528 870.128 707.048 869.992 706.56C869.592 704.808 869.592 704.808 869.592 702.408C868.856 700.776 868.04 699.184 867.192 697.608C866.728 696.728 866.728 696.728 866.256 695.84C864.408 692.416 862.488 689.4 859.992 686.4C859.168 685.08 858.368 683.744 857.592 682.4C857.16 681.808 856.736 681.208 856.296 680.6C853.816 675.64 854.304 669.72 854.24 664.28C854.232 663.704 854.224 663.12 854.208 662.528C854.208 658.968 854.712 656.144 855.992 652.848C856.36 651.44 856.36 651.44 856.744 650C857.536 647.424 858.504 645.48 859.992 643.248C858.528 640.712 858.528 640.712 855.992 639.248C855.44 637.552 855.44 637.552 855.192 636.048C858.952 633.752 858.952 633.752 860.944 632.896C862.768 631.832 863.136 630.744 863.992 628.848C866.384 627.648 867.8 628.224 870.392 628.848L870.4 628.8Z" fill="white"/>
<path d="M493.6 614.4H495.408H499.192C501.12 614.408 503.048 614.4 504.976 614.4H508.648C509.224 614.4 509.808 614.4 510.4 614.392C512.88 614.408 514.808 614.52 517.176 615.304C518.792 615.352 520.408 615.392 522.024 615.416C529.416 615.568 534.904 616.736 541.144 620.904C541.624 621.224 542.104 621.536 542.6 621.856C546.256 624.6 548.912 628.432 551.56 632.096C551.904 632.552 552.248 633 552.6 633.472C556.208 638.816 555.968 645.632 555.064 651.792C553.464 659.144 550.16 664.912 544.344 669.712C543.544 670.384 543.544 670.384 542.728 671.064C535.36 676.592 526.408 676.352 517.528 676.272C516.616 676.272 515.704 676.264 514.768 676.264C511.896 676.256 509.032 676.232 506.128 676.216C504.168 676.208 502.208 676.2 500.248 676.192C495.472 676.176 490.728 676.152 485.928 676.112C484.44 671.688 484.104 667.792 484.144 663.152V661.064C484.152 659.608 484.152 658.16 484.168 656.712C484.184 654.504 484.184 652.296 484.184 650.088C484.184 648.68 484.192 647.264 484.192 645.848C484.2 645.192 484.2 644.544 484.2 643.864C484.232 640.136 484.552 636.592 485.128 632.904C485.24 631.44 485.32 629.976 485.384 628.512C485.416 627.736 485.448 626.96 485.488 626.16C485.52 625.368 485.544 624.576 485.584 623.76C485.616 622.944 485.648 622.128 485.688 621.288C485.768 619.296 485.848 617.304 485.928 615.304C488.36 614.088 490.888 614.392 493.552 614.4H493.6Z" fill="#44527B"/>
<path d="M832 520.8H836.8C842.968 532.96 848.8 545.28 854.56 557.68C855.624 559.96 856.704 562.24 857.792 564.512C860.52 570.216 863.224 575.872 865.664 581.712C867.272 585.528 869.024 589.232 870.912 592.912C874.4 599.704 877.448 606.672 880.512 613.712C882.384 617.968 884.296 622.192 886.392 626.352C889.36 632.192 891.984 638.192 894.632 644.192C897.6 650.944 897.6 650.944 900.832 657.552C901.096 658.056 901.36 658.568 901.632 659.096C902.368 660.512 903.12 661.92 903.872 663.336C904.832 665.608 904.832 665.608 904.032 668.008L900.032 664.008C899.392 663.432 898.744 662.856 898.08 662.256C895.04 658.92 891.816 654.704 890.848 650.176C890.712 649.72 890.576 649.256 890.432 648.776C889.64 648.512 888.848 648.248 888.032 647.976V646.376C887.24 646.112 886.448 645.848 885.632 645.576C884.68 643.528 884.68 643.528 884.032 641.576H882.432C882.152 640.752 881.872 639.928 881.584 639.08C879.76 634.808 876.448 632.208 872.384 630.12C871.416 629.848 871.416 629.848 870.432 629.568C869.216 629.224 869.216 629.224 867.984 628.864C865.536 628.496 865.536 628.496 863.832 630.32C863.368 630.864 862.912 631.408 862.432 631.968H860.832L860.032 634.368C857.984 635.32 857.984 635.32 856.032 635.968C856.656 637.968 856.656 637.968 857.632 639.968C858.424 640.232 859.216 640.496 860.032 640.768C860.736 642.216 860.736 642.216 860.832 643.968C860.048 645.048 859.248 646.112 858.432 647.168C857.84 649.016 857.312 650.888 856.832 652.768C856.56 653.592 856.28 654.408 856 655.256C854.96 658.912 854.968 662.496 854.984 666.296C854.96 667.312 854.96 667.312 854.944 668.344C854.936 674.384 855.992 680.104 860.032 684.824C861.104 686.416 862.176 688.016 863.232 689.624L864.832 692.024C865.64 693.464 866.44 694.92 867.232 696.376C867.648 697.128 868.056 697.888 868.48 698.672C868.864 699.384 869.24 700.088 869.632 700.824C869.952 701.4 870.272 701.976 870.608 702.568C871.472 704.576 870.872 705.936 870.432 708.024C872.896 710.488 874.944 712.2 878.432 712.824V715.224C874.368 713.968 870.592 712.296 866.752 710.52C861.76 708.264 856.832 706.256 851.552 704.656C849.736 704.056 848.144 703.296 846.448 702.424C846.312 694.264 846.192 686.104 846.08 678.024C846.056 676.648 846.04 675.28 846.016 673.904C845.752 655.744 845.616 637.504 845.68 619.344C845.688 617.616 845.688 615.888 845.696 614.16C845.712 606.544 845.744 598.96 845.8 591.28C845.824 588.112 845.832 584.952 845.848 581.76C845.848 580.288 845.864 578.808 845.88 577.336C845.896 575.312 845.904 573.28 845.904 571.256C845.92 570.376 845.92 570.376 845.936 569.472C845.92 565.248 845.064 561.856 842.048 558.752C841.632 558.464 841.216 558.176 840.792 557.88C840.32 557.552 839.856 557.216 839.376 556.88C838.888 556.552 838.4 556.224 837.896 555.888C837.152 555.36 837.152 555.36 836.384 554.832C833.744 553.016 831.104 551.4 828.224 550.032C827.384 549.624 826.536 549.208 825.672 548.784C825.28 547.592 825.28 547.592 824.872 546.384H830.472C831.92 542.8 832.232 540.536 831.272 536.784C830.984 536.176 830.696 535.568 830.392 534.944C829.504 532.28 829.792 530.632 830.32 527.888C830.472 527.056 830.632 526.232 830.784 525.376C831.272 523.184 831.272 523.184 832.072 520.784L832 520.8Z" fill="white"/>
<path d="M501.6 497.6C502.488 497.592 502.488 497.592 503.384 497.592C507.8 497.6 507.8 497.6 509.6 498.496C511.104 498.472 512.6 498.416 514.096 498.352C518.528 498.312 522.496 498.848 526.736 499.904C527.264 500.024 527.792 500.152 528.336 500.28C535.272 502.112 539.856 506.456 544.016 512.12C548.248 519.832 550.304 527.32 548.272 536.12C545.632 543.968 540.824 550.68 533.472 554.68C523.952 558.96 512.672 558.816 502.432 559.08C500.536 559.136 498.64 559.2 496.744 559.264C495.536 559.304 494.32 559.336 493.104 559.368C492.264 559.4 492.264 559.4 491.4 559.432C488.44 559.496 487.304 559.424 484.768 557.728C482.872 549.408 483.848 539.808 483.864 531.328C483.872 528.848 483.864 526.368 483.856 523.896C483.856 522.296 483.864 520.696 483.864 519.088C483.864 518.368 483.856 517.64 483.856 516.888C483.904 504.328 483.904 504.328 485.568 499.368C486.408 499.296 486.408 499.296 487.264 499.224C487.992 499.16 488.72 499.088 489.472 499.024C490.192 498.96 490.912 498.896 491.664 498.824C500.384 497.664 500.384 497.664 501.584 497.672L501.6 497.6Z" fill="#44527B"/>
<path d="M992.8 435.2H995.952H1002.5C1005.29 435.208 1008.07 435.2 1010.82 435.2C1013.5 435.192 1016.18 435.2 1018.82 435.2C1019.82 435.2 1020.81 435.2 1021.83 435.192C1023.23 435.2 1023.23 435.2 1024.66 435.2C1025.46 435.2 1026.28 435.208 1027.12 435.208C1031.88 435.408 1031.88 435.408 1034.25 436.104C1035.91 438.824 1036.05 441.32 1036.03 444.424V446.992C1036.02 447.896 1036.02 448.808 1036.01 449.736C1036.01 450.672 1036 451.608 1036 452.576C1035.99 455.56 1035.97 458.544 1035.95 461.536L1035.93 467.608C1035.91 472.568 1035.89 477.528 1035.85 482.488C1034.25 480.888 1034.25 480.888 1034.1 479.336C1034.14 477.72 1034.2 476.104 1034.25 474.488H1033.45C1032.66 466.168 1032.66 466.168 1031.85 457.688L1029.45 460.088C1029.14 459.656 1028.83 459.224 1028.51 458.776C1027.89 457.92 1027.89 457.92 1027.25 457.04C1026.84 456.472 1026.43 455.904 1026.02 455.328C1024.7 453.624 1024.7 453.624 1022.89 452.384C1022.18 451.84 1022.18 451.84 1021.45 451.288V449.688C1018.47 448.376 1015.71 447.712 1012.49 447.24C1006.96 446.416 1006.96 446.416 1005.43 444.888V445.688H989.432C991.032 444.088 991.032 444.088 993.432 443.288C989.144 443.624 987.032 444.448 983.832 447.288C983.04 447.552 982.248 447.816 981.432 448.088L983.032 450.488C979.424 455.112 979.424 455.112 977.336 456.088C974.48 457.608 973.656 461.024 972.68 463.968C970.56 472.928 970.736 481.808 970.832 491.008C970.848 492.688 970.856 494.376 970.864 496.056C970.96 510.296 971.096 524.456 972.44 538.616C973.584 551.656 973.472 564.536 972.448 577.576C971.96 583.96 971.752 590.296 971.832 596.696C971.952 606.216 971.44 615.656 970.8 625.096C970.136 635.096 970.224 644.776 970.832 654.776C970.936 656.52 971.032 658.272 971.128 660.016C971.472 666.016 972.048 671.856 973.432 677.696C975.504 687.936 976.064 698.656 973.432 708.896C973.056 712.472 974.168 714.568 975.832 717.696V719.296C976.624 719.56 977.416 719.824 978.232 720.096C979.088 721.584 979.088 721.584 979.832 723.448C980.104 724.096 980.376 724.744 980.664 725.408C980.92 726.032 981.168 726.656 981.432 727.296C982.768 730.632 982.768 730.632 985.232 733.048C985.832 733.264 986.424 733.48 987.032 733.696C987.976 734.112 988.92 734.52 989.888 734.952C994.128 736.72 997.696 737.088 1002.21 737.208C1003.3 737.24 1003.3 737.24 1004.41 737.272C1006.78 737.336 1009.17 737.392 1011.54 737.448C1012.35 737.464 1013.16 737.488 1013.98 737.504C1024.7 737.744 1035.26 737.72 1045.98 737C1046.53 736.96 1047.07 736.928 1047.62 736.888C1053.1 736.768 1053.1 736.768 1058.26 735.296C1059.62 735.224 1060.97 735.192 1062.32 735.2C1063.04 735.2 1063.75 735.192 1064.5 735.192C1066.26 735.296 1066.26 735.296 1067.06 736.096C1069.1 736.288 1071.13 736.44 1073.17 736.552C1073.73 736.584 1074.29 736.616 1074.86 736.656C1077.57 736.808 1080.22 736.896 1082.94 736.872C1085.47 736.896 1085.47 736.896 1087.87 737.696C1089.34 737.776 1090.79 737.8 1092.26 737.808H1094.83C1095.72 737.808 1096.61 737.8 1097.53 737.8C1098.42 737.8 1099.31 737.808 1100.22 737.808H1102.8C1103.58 737.8 1104.37 737.8 1105.17 737.8C1107.09 737.824 1107.09 737.824 1108.67 736.896C1111.27 736.672 1113.86 736.544 1116.46 736.4C1119.58 736.04 1121.99 735.344 1124.46 733.4C1125.59 732.152 1125.59 732.152 1125.72 730.448C1125.9 729.936 1126.08 729.424 1126.26 728.896C1126.98 728.696 1127.69 728.488 1128.42 728.28C1131.57 727.112 1133.35 725.32 1135.57 722.896C1138.67 719.56 1141.13 717.544 1145.49 716.096L1146.29 700.896H1147.09C1147.11 706.128 1147.13 711.376 1147.14 716.576C1147.14 718.36 1147.14 720.136 1147.15 721.912C1147.16 724.464 1147.17 727.016 1147.17 729.568C1147.18 730.768 1147.18 730.768 1147.18 732V734.232V736.208C1147.09 737.696 1147.09 737.696 1146.29 738.496C1138.66 739.712 1130.77 739.576 1123.01 739.752C1122.27 739.768 1121.54 739.784 1120.78 739.8C1083.82 740.6 1046.94 740.208 1010.38 739.776C1008.26 739.752 1006.14 739.728 1004.02 739.704C1000.68 739.664 997.344 739.624 994.016 739.576C992.792 739.56 991.568 739.544 990.344 739.528C972.664 739.328 972.664 739.328 969.064 736.896C968.2 734.296 968.168 732.408 968.168 729.672C968.16 728.656 968.16 727.64 968.16 726.592V723.192C968.16 721.992 968.16 720.792 968.152 719.592V709.672C968.152 706.112 968.144 702.552 968.144 698.952C968.136 691.976 968.136 685.032 968.136 677.992C968.136 672.328 968.128 666.632 968.128 660.952C968.12 644.872 968.12 628.792 968.12 612.712V610.08V607.456C968.12 593.376 968.112 579.296 968.104 565.216C968.088 550.816 968.08 536.336 968.088 521.936C968.088 513.856 968.08 505.696 968.072 497.616C968.064 490.712 968.064 483.776 968.072 476.896C968.072 473.376 968.072 469.856 968.064 466.336C968.056 463.112 968.064 459.888 968.064 456.656C968.072 455.488 968.064 454.32 968.064 453.152C968.056 451.568 968.064 449.976 968.072 448.392C968.064 447.512 968.064 446.632 968.064 445.72C968.296 442.8 968.864 440.32 969.864 437.56C975.952 433.504 986.024 435.048 993.144 435.056L992.8 435.2Z" fill="white"/>
<path d="M817.6 550.4L819.2 551.2C820.136 554 820.088 556.488 820.048 559.36C820.048 559.952 820.04 560.536 820.04 561.144C820.024 563.632 820.008 566.128 819.984 568.616C819.928 575.536 819.976 582.456 820.288 589.336C820.824 601.336 820.904 613.336 820.88 625.336C820.88 627.368 820.872 629.4 820.872 631.432C820.872 636.168 820.864 640.872 820.856 645.672C820.848 651.088 820.848 656.472 820.84 661.912C820.832 673.032 820.816 684.072 820.8 695.192C818.72 695.232 816.632 695.264 814.552 695.288C813.96 695.304 813.368 695.32 812.76 695.336C809.672 695.36 808.232 695.344 805.6 693.592C805.296 692.04 805.296 692.04 805.288 690.104C805.288 689.376 805.28 688.64 805.272 687.888C805.272 687.08 805.272 686.28 805.28 685.448C805.272 684.176 805.272 684.176 805.264 682.88C805.248 680.064 805.248 677.256 805.248 674.4C805.24 672.448 805.224 670.488 805.216 668.536C805.184 663.384 805.168 658.216 805.16 653.096C805.136 644.856 805.104 636.616 805.064 628.376C805.048 625.496 805.048 622.624 805.04 619.736C805.032 617.96 805.024 616.184 805.016 614.416C805.024 613.224 805.024 613.224 805.024 612.008C805.048 605.008 805.048 605.008 803.2 598.328C801.672 597.368 801.672 597.368 800 596.728C798.712 595.888 797.432 595.032 796.152 594.176C790.768 590.704 785.032 588.12 779.192 585.536C780.504 580.112 780.504 580.112 782.744 578.736C783.416 578.336 784.096 577.944 784.792 577.536L786.392 575.136C788.888 574.184 788.888 574.184 791.192 573.536V575.136C791.984 574.872 792.776 574.608 793.592 574.336L794.392 591.136L798.392 592.736C798.416 591.04 798.432 589.336 798.44 587.632C798.448 586.688 798.464 585.744 798.472 584.768C798.56 582.4 798.56 582.4 797.592 580.736C797.296 578.376 797.072 576.056 796.888 573.688C796.824 573.04 796.752 572.392 796.688 571.728C796.44 568.288 796.376 566.872 798.552 564.072C799.296 563.496 800.032 562.928 800.792 562.336C801.4 561.808 802 561.288 802.624 560.744C807.336 556.944 812.224 553.104 817.584 550.344L817.6 550.4Z" fill="white"/>
<path d="M348 772.8C348.952 772.784 349.904 772.768 350.888 772.752C356.248 772.728 361.368 772.816 366.168 775.4C367.768 777.448 367.768 777.448 368.568 779.4C368.968 780.192 368.968 780.192 369.368 781C369.72 786.216 369.576 791.08 367.88 796.04C367.736 798.328 368.64 799.784 369.584 801.816C370.68 804.832 370.544 807.904 370.52 811.096C370.544 812.088 370.544 812.088 370.568 813.096C370.56 817.464 369.96 820.056 366.968 823.416C362.984 826.688 360.184 827.064 355.288 826.96C354.312 826.952 354.312 826.952 353.32 826.952C351.96 826.944 350.6 826.928 349.232 826.904C347.144 826.864 345.048 826.856 342.96 826.84C341.632 826.832 340.312 826.816 338.984 826.808C338.36 826.8 337.728 826.792 337.08 826.792C332.696 826.712 332.696 826.712 331.8 825.816C330.776 815.256 330.88 804.536 330.816 793.976C330.808 792.472 330.792 790.968 330.776 789.464C330.752 787.328 330.744 785.184 330.736 783.04C330.728 782.392 330.72 781.736 330.704 781.064C330.728 776.56 330.728 776.56 332.104 774.872C336.096 771.656 343.144 772.848 348.024 772.824L348 772.8Z" fill="white"/>
<path d="M777.6 589.6L780 591.2C780.224 593.296 780.296 595.2 780.256 597.288V599.2C780.248 601.28 780.232 603.36 780.208 605.448C780.2 606.888 780.192 608.336 780.192 609.784C780.176 613.592 780.152 617.4 780.12 621.224C780.072 627.32 780.04 633.384 780.016 639.544C780.008 641.672 779.992 643.808 779.968 645.936C779.96 647.24 779.952 648.544 779.944 649.856C779.944 650.448 779.936 651.04 779.928 651.656C779.92 654.144 780.008 656.064 780.8 658.448C780.872 659.608 780.904 660.768 780.904 661.92C780.904 662.92 780.904 662.92 780.912 663.944C780.904 664.64 780.904 665.336 780.896 666.048C780.904 667.088 780.904 667.088 780.912 668.152C780.912 668.816 780.904 669.488 780.904 670.176V672.016C780.8 673.648 780.8 673.648 780 676.048C779.88 677.408 779.8 678.768 779.744 680.136C779.712 680.92 779.68 681.704 779.648 682.512C779.616 683.336 779.584 684.152 779.552 685C779.512 685.824 779.48 686.656 779.448 687.512C779.36 689.552 779.28 691.6 779.2 693.648C777.4 693.688 775.6 693.72 773.8 693.744C772.8 693.768 771.792 693.784 770.76 693.808C768 693.648 768 693.648 764.8 692.048L764 640.048L756 636.048L756.8 608.848L755.2 608.048C758.776 603.52 762.576 600.328 767.28 597.008C768.552 596.112 769.824 595.216 771.088 594.32C771.928 593.736 771.928 593.736 772.776 593.144C774.4 591.992 775.992 590.808 777.584 589.608L777.6 589.6Z" fill="white"/>
<path d="M224 784.8C227.976 786.92 229.36 790.248 230.896 794.24C232.576 800.704 232.304 807.36 232.288 814C232.296 815.512 232.296 815.512 232.296 817.048C232.28 834.728 232.28 834.728 228.184 839.368C223.36 843.944 218.584 844.504 212.184 844.368C207.632 843.992 204.184 842.936 201.144 839.472C198.472 835.536 197.624 832.944 197.84 828.192C200.44 828.712 202.4 829.688 204.696 830.992C209.688 833.536 214.776 834.688 220.216 833.096C222.632 830.528 223.352 827.552 224.216 824.216C222.904 824.616 222.904 824.616 221.568 825.016C215.464 826.512 209.488 826.816 203.968 823.576C200.36 820.96 199.04 817.984 197.84 813.816C196.552 804.456 196.328 796.056 202.016 788.136C208.016 781.704 216.416 781.528 224.096 784.848L224 784.8Z" fill="white"/>
<path d="M135.2 772.8H138.104C139.096 772.816 140.096 772.824 141.12 772.84C142.096 772.84 143.072 772.832 144.08 772.832C159.2 772.92 159.2 772.92 162.8 775.784C166.48 780.504 165.912 788.264 165.416 793.864C164.712 796.144 164.712 796.144 163.816 797.864C162.12 798.52 162.12 798.52 160.616 798.664C161.128 799.544 161.64 800.416 162.168 801.32C164.168 804.744 164.736 807.488 164.872 811.48C164.904 812.416 164.936 813.344 164.976 814.304C165.008 815.272 165.04 816.248 165.072 817.248C165.12 818.72 165.12 818.72 165.176 820.224C165.256 822.648 165.344 825.072 165.416 827.496C164.12 827.384 162.816 827.272 161.52 827.152C160.432 827.048 160.432 827.048 159.328 826.952C157.416 826.696 157.416 826.696 155.816 825.896C155.528 824.16 155.528 824.16 155.4 821.88C155.344 821.064 155.288 820.248 155.224 819.408C155.12 817.672 155.016 815.944 154.92 814.208C154.864 813.392 154.808 812.576 154.744 811.728C154.704 810.976 154.656 810.224 154.616 809.448C154.152 807.176 153.72 806.4 151.816 805.096C150.12 804.768 150.12 804.768 148.256 804.864C147.344 804.872 147.344 804.872 146.408 804.88C145.632 804.904 144.864 804.928 144.072 804.952C141.608 805 139.152 805.048 136.616 805.096L135.816 826.696H127.016C125.592 825.272 126.088 823.152 126.064 821.216C126.048 820.216 126.04 819.216 126.024 818.184C126.016 817.08 126.008 815.984 126 814.88C125.992 814.328 125.992 813.776 125.984 813.208C125.968 810.28 125.952 807.36 125.936 804.408C125.928 801.384 125.888 798.36 125.848 795.368C125.824 793.048 125.816 790.728 125.808 788.408C125.8 787.288 125.792 786.176 125.768 785.064C125.744 783.504 125.752 781.944 125.752 780.384C125.744 779.496 125.736 778.608 125.736 777.696C126.216 775.496 126.216 775.496 128.096 774.008C130.616 772.928 132.464 772.8 135.2 772.808V772.8Z" fill="white"/>
<path d="M739.2 631.2C739.32 639.36 739.44 647.6 739.552 655.84C739.608 659.64 739.664 663.448 739.72 667.28C739.776 670.952 739.824 674.624 739.872 678.32C739.896 679.728 739.912 681.128 739.936 682.528C739.968 684.488 739.992 686.456 740.016 688.416C740.024 689 740.04 689.576 740.048 690.176C740.072 692.656 739.992 694.52 739.2 696.888C738.448 697.024 738.448 697.024 737.68 697.168C735.424 697.592 733.16 698.016 730.896 698.44C729.72 698.656 729.72 698.656 728.512 698.88C727.384 699.096 727.384 699.096 726.232 699.312C725.536 699.44 724.84 699.568 724.12 699.704C722.376 700.024 722.376 700.024 720.8 700.888C719.2 700.92 717.6 700.92 716 700.888C714.968 698.832 715.096 697.352 715.096 695.048C715.096 694.16 715.088 693.272 715.088 692.36C715.088 691.392 715.096 690.432 715.096 689.44C715.096 688.448 715.096 687.456 715.088 686.432C715.088 684.328 715.088 682.224 715.096 680.128V673.688C715.088 670.584 715.088 667.488 715.096 664.408C715.096 663.456 715.088 662.504 715.088 661.52C715.128 646.96 715.128 646.96 717.288 643.84C719.808 642.096 722.384 640.496 725.048 638.968C728.224 637.136 731.296 635.288 734.248 633.088C736.816 631.32 736.816 631.32 739.216 631.32L739.2 631.2Z" fill="white"/>
<path d="M1144 775.2C1148.25 779.928 1149.24 784.56 1149.3 790.88C1149.31 791.416 1149.32 791.952 1149.33 792.504C1149.26 796.52 1148.37 799.272 1146.55 802.744C1140.68 808.04 1132.31 807.752 1124.79 808.144C1122.62 808.096 1122.62 808.096 1121.74 809.144C1121.62 810.504 1121.54 811.872 1121.49 813.248C1121.46 814.072 1121.42 814.904 1121.38 815.752C1121.35 816.624 1121.33 817.496 1121.29 818.392C1121.26 819.264 1121.22 820.136 1121.18 821.04L1120.94 827.544C1119.62 827.56 1118.31 827.576 1116.99 827.592C1116.26 827.6 1115.53 827.608 1114.77 827.624C1112.94 827.544 1112.94 827.544 1112.14 826.744C1112.06 825.152 1112.03 823.568 1112.02 821.976C1112.02 820.96 1112.02 819.936 1112.01 818.888V815.52C1112.01 814.376 1112 813.232 1112 812.088C1111.99 809.696 1111.99 807.296 1111.99 804.896C1111.99 801.816 1111.98 798.736 1111.97 795.616C1111.96 793.256 1111.96 790.896 1111.96 788.536C1111.96 787.4 1111.95 786.264 1111.95 785.128C1111.94 783.544 1111.94 781.96 1111.94 780.368V777.632C1112.14 775.504 1112.14 775.504 1113.74 773.904C1123.26 771.944 1135.1 770.216 1143.98 775.152L1144 775.2Z" fill="white"/>
<path d="M943.2 784.8C948.2 788.464 950.288 794.24 951.68 800.08C951.728 803.576 951.392 807.008 951.04 810.48C950.888 812.04 950.776 813.608 950.664 815.176C949.88 823.336 949.88 823.336 946.832 826.296C941.584 829.816 935.872 830.096 929.712 829.312C925.752 828.512 923.272 827.4 920.912 824.072C916.696 816.552 915.192 806.872 917.28 798.472C919.2 793.192 921.32 787.752 926.24 784.552C931.664 782.216 938 781.952 943.2 784.8Z" fill="white"/>
<path d="M1035.2 496.8H1036C1037.07 505.2 1036.9 513.52 1036.88 522C1036.88 523.656 1036.87 525.304 1036.87 526.952C1036.87 530.496 1036.86 534.04 1036.86 537.592C1036.85 543.192 1036.85 548.792 1036.84 554.392C1036.83 566.232 1036.82 578.152 1036.8 589.992C1036.78 602.792 1036.77 615.672 1036.76 628.472L1036.74 645.192C1036.73 648.648 1036.73 652.104 1036.73 655.592C1036.72 657.2 1036.72 658.808 1036.71 660.408V666.968C1036.7 667.608 1036.7 668.248 1036.7 668.904C1036.7 671.696 1036.85 674.184 1037.6 676.872C1032.91 676.712 1032.91 676.712 1031.2 676.072C1025.62 669.432 1027.18 659.752 1027.22 651.432C1027.23 645.736 1027.17 640.072 1027 634.392C1026.97 633.4 1026.97 633.4 1026.94 632.376C1026.9 631.016 1026.86 629.648 1026.81 628.28C1026.18 606.92 1026.48 585.56 1027.95 564.28C1028.01 563.392 1028.07 562.496 1028.13 561.584C1028.22 560.376 1028.22 560.376 1028.32 559.144C1028.38 558.448 1028.43 557.752 1028.49 557.04C1028.8 555.28 1028.8 555.28 1030.4 552.88C1030.74 550.768 1030.74 550.768 1030.85 548.48C1031.02 545.984 1031.21 544.064 1032 541.68C1032.1 539.752 1032.16 537.832 1032.2 535.904C1032.22 534.752 1032.25 533.6 1032.28 532.448C1032.31 530.632 1032.35 528.824 1032.38 527.008C1032.42 525.256 1032.46 523.504 1032.5 521.752C1032.52 520.704 1032.54 519.656 1032.56 518.576C1032.8 516.08 1032.8 516.08 1034.4 514.48C1035.48 510.864 1035.29 507.168 1035.25 503.44C1035.25 502.808 1035.24 502.176 1035.24 501.528C1035.23 499.984 1035.22 498.432 1035.2 496.888V496.8Z" fill="white"/>
<path d="M707.2 772C710.368 775.952 712.24 780.56 713.904 785.28C714.136 785.928 714.368 786.576 714.6 787.24C718.152 797.24 721.288 807.32 724.28 817.48C724.816 819.28 724.816 819.28 725.76 821.408C726.408 823.16 726.408 823.16 726.408 827.16H717.608C716.192 823.624 715.28 820.44 714.408 816.76C711.408 816.712 708.408 816.688 705.448 816.664C704.6 816.648 703.744 816.632 702.872 816.616C701.64 816.608 701.64 816.608 700.384 816.6C699.632 816.592 698.88 816.584 698.104 816.576C695.928 816.768 694.656 817.16 692.848 818.36C691.944 820.464 691.944 820.464 691.448 822.856C691.256 823.664 691.064 824.464 690.864 825.288C690.728 825.904 690.592 826.528 690.448 827.16C689.28 827.2 688.112 827.232 686.944 827.256C686.296 827.28 685.648 827.296 684.976 827.32C683.248 827.16 683.248 827.16 681.648 825.56C684.872 813.4 688.488 801.32 692.688 789.48C693.136 788.192 693.584 786.896 694.024 785.608C694.648 783.776 695.288 781.96 695.944 780.136C696.128 779.592 696.312 779.048 696.496 778.48C697.544 775.656 698.304 774.488 700.896 772.864C705 771.352 705 771.352 707.264 771.992L707.2 772Z" fill="white"/>
<path d="M1089.6 673.6H1091.55H1095.64C1097.72 673.608 1099.79 673.6 1101.87 673.6H1105.85C1106.46 673.6 1107.09 673.6 1107.72 673.592C1111.1 673.608 1114.2 673.944 1117.56 674.504C1119.71 674.568 1121.83 674.6 1123.98 674.584H1125.79C1127.68 674.576 1129.57 674.568 1131.46 674.56C1132.75 674.552 1134.04 674.552 1135.33 674.544C1138.47 674.536 1141.62 674.52 1144.77 674.504C1146.49 678.136 1147.47 680.768 1147.4 684.824C1147.4 685.672 1147.39 686.52 1147.38 687.392C1147.36 688.264 1147.34 689.128 1147.32 690.024C1147.31 690.912 1147.3 691.808 1147.29 692.72C1147.26 694.904 1147.22 697.088 1147.17 699.272H1146.37C1145.98 696.504 1145.98 696.504 1145.57 693.672C1145.16 693.592 1144.74 693.512 1144.32 693.424C1142.37 692.872 1142.37 692.872 1139.87 691.728C1134.38 689.368 1129.47 688.712 1123.55 689.328C1114.43 690.136 1104.11 689.232 1095.23 686.864C1092.9 686.32 1090.6 686.176 1088.22 685.984C1087.15 685.888 1086.08 685.8 1085.01 685.704C1083.35 685.568 1081.69 685.424 1080.02 685.296C1072.18 684.68 1065.06 683.328 1057.54 680.872V679.272C1056.62 679.192 1055.7 679.112 1054.74 679.024C1051.14 678.584 1048.1 677.456 1044.74 676.072V674.472C1045.2 674.48 1045.66 674.48 1046.13 674.48C1050.88 674.496 1055.65 674.512 1060.37 674.52C1062.14 674.52 1063.91 674.528 1065.69 674.536C1068.23 674.544 1070.78 674.552 1073.32 674.552C1074.52 674.56 1074.52 674.56 1075.74 674.568H1077.97H1079.94C1083.16 674.376 1086.18 673.56 1089.62 673.568L1089.6 673.6Z" fill="white"/>
<path d="M560.8 785.6C566.056 792.904 566.64 800 566.4 808.8C565.608 809.064 564.816 809.328 564 809.6C563.208 809.2 563.208 809.2 562.4 808.8C560.888 808.784 559.376 808.832 557.872 808.896C556.968 808.936 556.072 808.976 555.152 809.016C553.736 809.08 553.736 809.08 552.304 809.152C551.352 809.192 550.408 809.232 549.432 809.28C547.088 809.384 544.744 809.488 542.4 809.6C542.24 813.696 542.24 813.696 543.2 817.6C546.936 819.928 550.96 819.984 555.2 819.2C557.32 817.912 559.024 816.52 560.824 814.824C562.4 813.6 562.4 813.6 565.6 813.6C565.968 818.136 565.232 821.248 562.4 824.8C558.752 828.736 554.792 829.48 549.52 829.704C543.944 829.456 539.84 827.24 536 823.2C532.752 817.88 532.328 812.96 532.448 806.8C532.448 806.016 532.44 805.232 532.432 804.424C532.488 798.432 533.448 793.304 536.552 788.184C543 782.08 553.352 780.2 560.792 785.632L560.8 785.6Z" fill="white"/>
<path d="M810.4 783.2C815.08 785.8 817.432 790.264 819.36 795.12C821.48 806.48 821.48 806.48 819.112 810.08C818.312 809.816 817.52 809.552 816.712 809.28V807.68C816.264 807.808 815.824 807.936 815.368 808.064C813.328 808.52 811.432 808.648 809.344 808.736C808.56 808.768 807.776 808.8 806.968 808.84C806.16 808.872 805.344 808.896 804.504 808.928C803.272 808.984 803.272 808.984 802.008 809.04L795.912 809.28C794.92 810.824 794.92 810.824 795.472 812.384C795.68 812.944 795.888 813.504 796.104 814.08C796.312 814.64 796.512 815.208 796.72 815.784C797.496 817.552 797.496 817.552 799.912 818.88C804.672 819.512 808.632 819.168 812.712 816.48C814.368 815.2 815.936 813.872 817.512 812.48C818.76 813.728 818.472 814.952 818.504 816.68C818.432 820.704 817.664 822.736 814.776 825.64C809.552 829.776 803.016 829.216 796.696 828.512C793.368 827.568 791.576 825.864 789.288 823.264C784.736 814.304 784.376 805.184 787.072 795.584C789.016 790.168 791.488 786.464 796.592 783.664C801.48 781.56 805.392 781.208 810.352 783.264L810.4 783.2Z" fill="white"/>
<path d="M244.8 772C247.2 772.152 247.2 772.152 249.6 772.8C251.208 775.216 251.416 775.848 251.528 778.584C251.56 779.224 251.592 779.872 251.624 780.528C251.648 781.2 251.672 781.864 251.696 782.552C251.728 783.224 251.76 783.904 251.792 784.6C251.872 786.264 251.936 787.936 252 789.6C252.752 788.96 253.504 788.32 254.28 787.664C257.248 785.144 259.568 784.112 263.48 783.752C266.744 784.032 269.352 784.392 271.96 786.4C276.92 792.616 277.696 798.56 277.64 806.32C277.64 806.896 277.632 807.48 277.632 808.072C277.632 809.896 277.624 811.728 277.608 813.552C277.608 814.8 277.6 816.04 277.6 817.288C277.592 820.328 277.576 823.36 277.56 826.408H269.56C268.736 823.928 268.688 822.304 268.736 819.704C268.752 818.424 268.752 818.424 268.768 817.12C268.792 815.336 268.824 813.552 268.864 811.776C269 803.376 269 803.376 267.16 795.216C265.456 793.648 264.528 792.88 262.216 792.616C258.848 792.992 257.112 793.344 254.36 795.464C251.68 799.064 251.808 802.528 251.704 806.904C251.688 807.488 251.672 808.064 251.656 808.664C251.608 810.512 251.56 812.368 251.512 814.216C251.472 815.472 251.44 816.728 251.408 817.984C251.32 821.064 251.24 824.136 251.16 827.184C249.976 827.072 248.792 826.952 247.608 826.832C246.624 826.736 246.624 826.736 245.616 826.64C243.96 826.384 243.96 826.384 243.16 825.584C242.176 819.936 242.304 814.384 242.4 808.624C242.416 807.624 242.432 806.624 242.448 805.6C242.488 802.96 242.536 800.32 242.584 797.68C242.616 795.52 242.648 793.368 242.672 791.208C242.712 788.624 242.752 786.048 242.8 783.472C242.816 782.504 242.824 781.536 242.84 780.536C242.856 779.648 242.872 778.752 242.896 777.832C242.904 777.048 242.92 776.256 242.928 775.448C243.16 773.568 243.16 773.568 244.76 771.968L244.8 772Z" fill="white"/>
<path d="M860 786.4C865.536 794.032 864.224 804.56 864.448 813.68C864.488 815 864.52 816.312 864.552 817.632C864.64 820.832 864.72 824.032 864.8 827.232C858.976 827.624 858.976 827.624 856.48 825.904C855.008 823.68 854.776 822.336 854.656 819.688C854.616 818.84 854.568 817.984 854.52 817.112C854.496 816.232 854.472 815.344 854.44 814.432C854.408 813.568 854.384 812.704 854.352 811.816C854.248 808.304 854.152 804.792 854.096 801.256C854.072 800.408 854.048 799.56 854.024 798.68C854.008 797.912 853.992 797.152 853.976 796.368C853.584 794.088 853.104 793.344 851.24 792.008C847.952 791.648 845.288 791.872 842.44 793.608C840.784 797.416 840.568 801.08 840.512 805.208C840.496 805.84 840.48 806.472 840.464 807.128C840.416 809.128 840.376 811.136 840.344 813.144C840.312 814.504 840.28 815.872 840.248 817.24C840.168 820.568 840.104 823.904 840.04 827.24C838.872 827.28 837.704 827.312 836.536 827.336C835.888 827.36 835.24 827.376 834.568 827.4C832.84 827.24 832.84 827.24 831.24 825.64C831.072 823.464 831 821.376 831 819.208C830.992 818.568 830.992 817.92 830.992 817.264C830.984 815.904 830.984 814.544 830.984 813.184C830.992 811.112 830.968 809.048 830.952 806.976V803.008C830.936 802.088 830.936 802.088 830.928 801.144C830.976 795.784 832.368 791.464 835.992 787.384C836.376 786.928 836.76 786.48 837.16 786.016C843.12 780.496 854.2 781.304 860.04 786.432L860 786.4Z" fill="white"/>
<path d="M985.6 786.4C988.392 788 990.544 789.552 991.968 792.552C993.04 796.528 993.128 800.632 993.248 804.712C992.696 804.144 992.136 803.584 991.568 803C989.176 800.616 986.72 798.304 984.2 796.056C983.776 795.656 983.352 795.256 982.912 794.84C980.384 792.616 978.736 791.656 975.312 791.648C974.368 791.736 973.424 791.824 972.448 791.912C972.112 794.176 972.112 794.176 972.448 796.712C975.944 800.256 979.888 801.104 984.528 802.296C988.4 803.376 990.616 804.704 993.248 807.912C994.696 812.24 994.72 817.112 993.248 821.432C989.352 825.448 985.704 826.44 980.288 826.656C973.576 826.736 968.048 826.168 962.768 821.68C961.6 818.864 961.824 816.512 962.016 813.52L962.816 811.92C966.872 812 968.64 812.68 971.536 815.52C974.768 818.576 976.744 819.192 981.216 819.12C983.16 818.488 983.16 818.488 984.416 817.52V813.52C981.28 812.088 978.248 810.928 974.896 810.016C970.168 808.648 965.536 806.632 962.016 803.12C961.32 797.512 962.776 793.36 966.016 788.72C971.472 783.208 978.816 783.368 985.536 786.368L985.6 786.4Z" fill="white"/>
<path d="M645.6 788C647.808 789.48 649.16 790.448 649.76 793.112C649.808 793.76 649.856 794.4 649.904 795.056C649.984 796.024 649.984 796.024 650.064 797.016C650.104 797.752 650.104 797.752 650.152 798.504C649.384 798.856 649.384 798.856 648.6 799.208C646.832 799.968 646.832 799.968 646.152 801.704V799.304H644.552C643.432 798.136 643.432 798.136 642.2 796.608C640.616 794.632 639.504 793.544 637.352 792.104C633.32 792.288 633.32 792.288 630.152 794.504C630.288 796.624 630.728 797.488 632.256 798.968C634.728 800.448 636.736 800.52 639.6 800.76C644.08 801.312 646.752 802.032 650 805.2C653.152 809.376 653.072 813.44 652.584 818.48C651.232 821.832 649.176 823.688 646.184 825.68C639.104 827.544 631.224 827.368 624.584 824.232C622.264 822.856 621.04 821.68 619.784 819.28C619.32 817.12 619.136 815.104 618.984 812.88C620.288 811.936 620.288 811.936 622.184 811.28C625.296 812.384 627.256 813.944 629.536 816.232C632.64 819.032 635.456 818.968 639.536 818.888C641.712 818.648 641.712 818.648 643.016 816.08C643.152 813.984 643.152 813.984 643.016 812.08C642.168 811.944 641.32 811.808 640.44 811.672C634.408 810.648 629.16 809.696 623.8 806.48V804.88C623.288 804.704 622.776 804.52 622.248 804.336C620.6 803.28 620.6 803.28 620.024 801.464C619.632 797.64 621.152 794.576 623 791.304C629.408 783.896 637.24 783.536 645.64 788H645.6Z" fill="white"/>
<path d="M598.4 785.6C602.176 787.336 604.84 789.424 606.96 793.056C607.272 795.76 607.2 798.344 606.96 801.056L603.76 800.256V798.656H602.16C601.568 798.04 600.968 797.432 600.36 796.8C598.072 794.568 596.352 793.352 593.36 792.256C590.376 792.424 589.088 792.528 586.96 794.656C587.216 796.736 587.216 796.736 587.76 798.656C588.496 798.848 589.224 799.04 589.984 799.24C596.44 801.008 602.144 802.904 607.744 806.656C608.664 809.408 608.704 811.648 608.744 814.552C608.76 815.528 608.784 816.496 608.808 817.496C608.512 820.552 608.136 821.928 606.144 824.256C601.944 826.64 598.272 827.096 593.504 827.056C592.872 827.048 592.24 827.048 591.584 827.04C586.6 826.896 581.984 826.112 578.144 822.656C576.624 819.6 576.256 817.256 576.544 813.856C577.344 811.552 577.344 811.552 578.144 809.856C580.544 809.856 580.544 809.856 581.888 811.168C582.352 811.744 582.816 812.312 583.296 812.904C586.552 816.952 586.552 816.952 591.144 819.088C592.056 819.168 592.056 819.168 592.992 819.256C593.608 819.312 594.216 819.376 594.848 819.44C596.696 819.544 596.696 819.544 598.944 818.656L599.744 813.056C599.176 812.944 598.616 812.84 598.04 812.728C591.856 811.376 581.64 808.976 577.88 803.448C576.712 799.744 577.08 796.48 578.584 792.968C582.392 785.92 590.984 783.368 598.424 785.616L598.4 785.6Z" fill="white"/>
<path d="M452 787.2C453.168 788.136 453.168 788.136 453.968 790.536H455.568C456.584 792.624 457.448 794.664 457.968 796.936C457.072 799.288 457.072 799.288 455.568 800.936C454.776 801.2 453.984 801.464 453.168 801.736V800.136H451.568C450.448 798.792 450.448 798.792 449.216 797.032C447.648 794.792 446.696 793.688 444.368 792.136C442 791.736 442 791.736 439.568 792.136C437.664 793.632 437.664 793.632 436.368 795.336C436.72 796.92 436.72 796.92 437.968 798.536C440.904 799.896 443.544 800.784 446.768 801.36C451.312 802.224 454.336 803.04 457.408 806.632C459.448 809.72 460.416 812.256 460.112 815.992C459.176 819.288 457.184 821.744 454.808 824.152C454.368 824.6 453.928 825.048 453.48 825.504C450.624 827.096 447.92 826.976 444.68 826.952C444.032 826.944 443.392 826.944 442.728 826.944C437.576 826.8 433.288 825.848 429.208 822.552C426.416 819.44 426.344 817.008 426.008 812.952L428.408 811.352C429 811.728 429.584 812.104 430.192 812.488C430.976 812.992 431.752 813.488 432.56 814C433.328 814.496 434.096 814.984 434.896 815.488C435.656 815.976 436.424 816.456 437.208 816.952C437.904 817.4 438.6 817.848 439.32 818.32C441.944 819.752 443.872 819.68 446.808 819.352C448.528 818.632 448.528 818.632 449.208 816.952C449.024 814.032 449.024 814.032 448.408 811.352C447.68 811.32 447.68 811.32 446.936 811.288C441.568 810.928 437.256 809.576 432.376 807.352C431.44 806.968 430.496 806.592 429.528 806.2C427.576 804.952 427.576 804.952 426.776 803.2C426.776 797.448 428.728 792.56 432.376 788.16C437.888 783.04 445.816 783.904 451.976 787.224L452 787.2Z" fill="white"/>
<path d="M516 785.6C520.28 789.288 521.696 793.68 522.4 799.2C522.656 804.008 522.552 808.8 522.496 813.68C522.488 815 522.488 816.312 522.48 817.632C522.464 820.832 522.432 824.032 522.4 827.232C520.864 827.256 520.864 827.256 519.296 827.28C518.72 827.288 518.144 827.304 517.552 827.312C516 827.232 516 827.232 514.448 826.432C512.072 821.96 512.608 815.472 512.4 810.512C512.232 806.504 512.04 802.512 511.68 798.512C511.6 797.664 511.6 797.664 511.52 796.792C511.024 794.408 509.688 792.952 508 791.264C506.664 791.52 505.336 791.792 504 792.064C503.424 792.112 502.848 792.16 502.248 792.216C500.576 792.768 500.576 792.768 499.928 794.872C499.064 798.176 498.92 801.2 498.872 804.632C498.856 805.28 498.84 805.936 498.824 806.6C498.776 808.664 498.736 810.728 498.704 812.792C498.672 814.192 498.64 815.6 498.608 817C498.528 820.432 498.464 823.856 498.4 827.32C497.232 827.344 496.064 827.36 494.896 827.368C493.928 827.384 493.928 827.384 492.928 827.4C491.2 827.32 491.2 827.32 489.6 826.52C489.56 822.776 489.528 819.04 489.512 815.32C489.504 814.048 489.496 812.776 489.48 811.512C489.28 792.792 489.28 792.792 496 785.752C502.032 781.296 509.76 781.744 516 785.752V785.6Z" fill="white"/>
<path d="M907.2 784C908.76 787.112 908.352 790.968 908.496 794.4C908.544 795.216 908.584 796.04 908.624 796.88C908.664 797.664 908.696 798.448 908.728 799.248C908.76 799.968 908.8 800.688 908.832 801.432C908.8 803.2 908.8 803.2 908 804.8C907.816 807.432 907.688 810.064 907.584 812.704C907.32 818.128 906.296 822.384 902.4 826.384C898.536 829.24 895.656 830.088 890.88 829.904C887.488 829.376 884.624 827.992 881.6 826.384L880 825.584V823.984C879.208 823.72 878.416 823.456 877.6 823.184C874.264 817.672 874.264 812.144 874.304 805.904C874.304 805.2 874.304 804.496 874.312 803.768C874.44 788.168 874.44 788.168 876.256 785.688C878.464 784.144 880.6 784.552 883.2 784.744C884 785.544 884 785.544 884.056 788.128C884.04 789.28 884.016 790.432 883.992 791.576C883.976 792.832 883.968 794.08 883.952 795.336C883.928 797.312 883.904 799.288 883.864 801.264C883.832 803.168 883.808 805.072 883.792 806.976C883.776 807.56 883.76 808.152 883.752 808.752C883.728 812.56 884.4 815.104 886.4 818.352C888.032 819.744 889.048 819.968 891.168 819.92C894.76 819.608 894.76 819.608 897.6 817.552C898.752 814.496 898.52 811.224 898.544 808.032C898.56 806.776 898.576 805.52 898.6 804.264C898.624 802.296 898.648 800.32 898.664 798.352C898.672 796.448 898.704 794.536 898.744 792.632C898.736 792.04 898.736 791.448 898.736 790.84C898.8 788.224 898.848 786.76 900.664 784.8C902.928 783.736 904.736 783.816 907.2 783.984V784Z" fill="white"/>
<path d="M387.2 784C390 784.2 390 784.2 391.6 785.8C391.784 787.984 391.88 790.104 391.904 792.288C391.92 792.936 391.928 793.584 391.944 794.248C391.984 796.312 392.016 798.384 392.048 800.448C392.088 802.512 392.12 804.568 392.168 806.632C392.192 807.912 392.208 809.192 392.232 810.472C392.288 813.544 392.464 816.416 393.2 819.432C395.464 820.184 396.904 820.336 399.248 820.336H401.152C402.848 820.336 402.848 820.336 404.4 819.432C405.424 816.368 405.448 813.4 405.568 810.232L405.76 806.128C405.856 803.96 405.952 801.8 406.04 799.64C406.128 797.552 406.224 795.472 406.32 793.384C406.344 792.736 406.368 792.088 406.392 791.416C406.616 786.848 406.616 786.848 408.4 785.064C410.8 784.464 410.8 784.464 413.2 784.264C415.288 786.352 415 787.816 415.024 790.656C415.016 791.312 415.016 791.968 415.016 792.648V794.696C415.016 796.136 415.016 797.568 415.008 799.008C415 801.192 415.008 803.376 415.016 805.56V809.752C415.016 810.4 415.016 811.048 415.024 811.712C414.968 818.16 413.848 822.832 409.2 827.472C404.024 830.192 396 830.08 390.4 828.52C386.376 826.416 384.168 822.872 382.768 818.68C382.688 817.592 382.656 816.512 382.648 815.424C382.648 814.768 382.64 814.12 382.64 813.448C382.632 812.752 382.632 812.048 382.632 811.328C382.632 810.608 382.632 809.888 382.624 809.144C382.624 807.616 382.616 806.096 382.616 804.576C382.616 802.24 382.6 799.896 382.592 797.56C382.584 796.088 382.584 794.608 382.584 793.128C382.576 792.424 382.576 791.72 382.568 791C382.592 784.408 382.592 784.408 387.168 784.08L387.2 784Z" fill="white"/>
<path d="M484.8 616.8H485.6C485.624 619.336 485.64 621.864 485.648 624.4C485.656 625.112 485.664 625.816 485.672 626.552C485.672 627.248 485.672 627.952 485.68 628.672C485.68 629.312 485.688 629.952 485.688 630.608C485.6 632.8 485.6 632.8 485.2 635.776C484.712 639.488 484.688 643.152 484.696 646.896C484.696 647.608 484.696 648.32 484.688 649.048C484.688 650.544 484.696 652.04 484.696 653.528C484.704 655.816 484.696 658.096 484.688 660.376C484.688 661.832 484.696 663.288 484.696 664.744C484.696 665.424 484.688 666.104 484.688 666.808C484.688 667.448 484.696 668.08 484.696 668.736V670.424C484.808 672.096 485.144 673.592 485.6 675.208C486.128 675.208 486.648 675.2 487.192 675.2C492.64 675.16 498.072 675.136 503.512 675.12C505.552 675.112 507.584 675.104 509.616 675.088C512.544 675.064 515.464 675.056 518.416 675.048C519.32 675.04 520.232 675.032 521.176 675.024H523.744C524.864 675.024 524.864 675.024 526.008 675.016C529.384 675.344 531.36 676.744 533.6 679.208C527.656 685.024 520.48 687.768 512.24 688.168C508.512 688.112 505 687.4 501.36 686.576C500.72 686.44 500.08 686.312 499.424 686.176C498.816 686.032 498.2 685.896 497.568 685.76C497.016 685.64 496.464 685.512 495.904 685.392C494.144 684.72 493.24 683.824 492.008 682.424L492.808 680.824H491.208V678.424C490.2 678.36 489.192 678.296 488.16 678.224C485.016 677.856 485.016 677.856 483.304 675.976C482.864 675.208 482.864 675.208 482.408 674.424H480.808V672.824C480.04 672.528 480.04 672.528 479.256 672.224C477.608 671.224 477.608 671.224 477.008 669.528C476.944 669.032 476.88 668.536 476.808 668.024H475.208C474.496 664.984 474.304 662.16 474.304 659.064C474.304 658.112 474.296 657.152 474.296 656.16C474.304 655.168 474.304 654.176 474.312 653.152C474.304 652.168 474.304 651.192 474.296 650.192C474.304 644.36 474.552 638.672 475.208 632.832C480.752 632.128 480.752 632.128 482.408 632.032L483.208 632.832C484.104 631.04 484.16 629.912 484.264 627.928C484.296 627.28 484.328 626.64 484.36 625.976C484.392 625.296 484.424 624.624 484.456 623.936C484.496 623.256 484.528 622.576 484.56 621.872C484.648 620.192 484.728 618.512 484.808 616.832L484.8 616.8Z" fill="white"/>
<path d="M1031.2 772.8C1032.22 774.824 1032.13 776.28 1032.17 778.544C1032.18 779.416 1032.2 780.28 1032.22 781.168C1032.22 782.104 1032.24 783.04 1032.26 784.008C1032.27 784.96 1032.29 785.92 1032.3 786.904L1032.45 796.104C1032.49 798.184 1032.52 800.256 1032.55 802.328C1032.64 807.424 1032.72 812.488 1032.8 817.608C1033.85 817.568 1033.85 817.568 1034.92 817.52C1037.5 817.416 1040.09 817.32 1042.67 817.224C1043.79 817.176 1044.9 817.136 1046.02 817.088C1047.63 817.024 1049.24 816.968 1050.85 816.904C1051.82 816.864 1052.78 816.832 1053.78 816.792C1056 816.808 1056 816.808 1056.8 817.608C1056.86 819.088 1056.86 820.576 1056.85 822.056C1056.84 822.864 1056.83 823.68 1056.83 824.512C1056.82 825.136 1056.81 825.76 1056.8 826.408C1052.03 826.424 1047.28 826.44 1042.48 826.448C1040.86 826.456 1039.23 826.464 1037.61 826.472C1035.28 826.48 1032.95 826.48 1030.62 826.488C1029.52 826.496 1029.52 826.496 1028.41 826.496C1026.66 826.496 1024.93 826.456 1023.19 826.408C1021.78 825 1022.29 823.128 1022.28 821.248C1022.28 820.632 1022.29 820.016 1022.29 819.376C1022.29 818.736 1022.28 818.096 1022.28 817.44C1022.28 815.344 1022.29 813.248 1022.3 811.16V809.016C1022.32 800.376 1022.36 791.656 1022.64 783.016C1022.66 782.24 1022.68 781.472 1022.7 780.672C1022.73 779.976 1022.75 779.272 1022.78 778.552C1022.8 777.96 1022.82 777.368 1022.85 776.752C1023.86 772.216 1027.19 772.592 1031.17 772.816L1031.2 772.8Z" fill="white"/>
<path d="M1075.2 772.8C1076.55 774.152 1076.14 775.872 1076.17 777.728C1076.18 778.608 1076.2 779.488 1076.22 780.4C1076.22 781.36 1076.24 782.312 1076.26 783.304C1076.27 784.28 1076.29 785.256 1076.3 786.256C1076.36 789.392 1076.4 792.52 1076.45 795.616C1076.49 797.736 1076.52 799.848 1076.55 801.968C1076.64 807.168 1076.72 812.368 1076.8 817.568H1101.6C1102.56 819.496 1102.48 820.728 1102.45 822.864C1102.44 823.52 1102.43 824.176 1102.43 824.848C1102.42 825.352 1102.41 825.848 1102.4 826.368C1097.51 826.384 1092.64 826.4 1087.76 826.408C1086.1 826.416 1084.44 826.424 1082.78 826.432C1080.39 826.44 1078 826.44 1075.62 826.448C1074.5 826.456 1074.5 826.456 1073.35 826.456H1071.26C1070.66 826.464 1070.05 826.464 1069.42 826.464C1068.02 826.368 1068.02 826.368 1067.22 825.568C1067.13 824.008 1067.1 822.448 1067.09 820.888C1067.08 819.888 1067.07 818.888 1067.06 817.856C1067.06 816.752 1067.06 815.648 1067.06 814.552C1067.05 813.424 1067.05 812.304 1067.04 811.176C1067.03 808.824 1067.02 806.464 1067.02 804.104C1067.02 801.08 1067 798.064 1066.98 795.064C1066.96 792.744 1066.96 790.416 1066.96 788.096C1066.95 786.984 1066.95 785.872 1066.94 784.752C1066.93 783.2 1066.93 781.64 1066.93 780.08C1066.93 779.192 1066.93 778.304 1066.92 777.392C1067.22 775.192 1067.22 775.192 1068.28 773.736C1070.78 771.968 1072.42 771.856 1075.22 772.792L1075.2 772.8Z" fill="white"/>
<path d="M741.6 784C746.368 784.16 746.368 784.16 748 784.8C750.896 789.192 751.68 794.48 752.816 799.52C754.44 807.12 754.44 807.12 758.4 813.6C758.504 813.144 758.6 812.68 758.704 812.208C763.688 789.648 763.688 789.648 767.984 785.808C769.976 784.616 771.312 784.648 773.6 784.84C774.896 786.816 775.256 787.712 774.848 790.072C774.592 790.832 774.336 791.584 774.072 792.36L773.224 794.904C772.92 795.792 772.616 796.68 772.304 797.592C771.696 799.408 771.088 801.216 770.48 803.032C770.184 803.904 769.896 804.768 769.592 805.664C768.664 808.456 767.824 811.264 767 814.064C765.64 818.528 764.16 823.024 760.8 826.384C757.848 826.544 755.616 826.52 752.8 825.584C748.36 819.536 746.688 811.264 744.64 804.144C744.04 802.04 743.408 799.952 742.784 797.856C742.392 796.52 742.008 795.184 741.624 793.84C741.432 793.216 741.24 792.592 741.048 791.952C739.832 787.616 739.832 787.616 740.688 785.144C740.984 784.752 741.288 784.36 741.592 783.96L741.6 784Z" fill="white"/>
<path d="M769.6 602.4C772.552 602.704 772.552 602.704 774.352 604.352C778.368 611.088 778.552 615.872 777.352 623.472C777.28 624.288 777.28 624.288 777.2 625.128C776.904 628.424 776.592 630.72 774.152 633.072H772.552V634.672H770.152L769.352 637.072C765.616 638.312 762.776 639.144 758.952 637.872C757.896 637.344 756.84 636.808 755.752 636.272C756.016 627.312 756.28 618.352 756.552 609.072C757.08 609.336 757.608 609.592 758.152 609.872C758.208 609.376 758.264 608.888 758.328 608.376C758.952 606.672 758.952 606.672 760.576 605.68C761.224 605.432 761.88 605.176 762.552 604.92C768.72 602.464 768.72 602.464 769.6 602.368V602.4Z" fill="white"/>
<path d="M296 772C297.848 772.648 297.848 772.648 298.648 774.248C298.704 775.616 298.72 776.984 298.704 778.352C298.696 779.08 298.688 779.808 298.68 780.56C298.672 781.112 298.656 781.672 298.648 782.248H300.248V783.848C300.896 784.016 301.536 784.184 302.2 784.352C302.88 784.712 303.552 785.08 304.248 785.448C304.896 787.952 304.896 787.952 305.048 790.248C303.888 790.792 303.888 790.792 302.704 791.352C300.192 792.376 300.192 792.376 299.448 794.248C299.168 797.504 299.096 800.752 299.04 804.008C299.016 805.096 298.976 806.176 298.92 807.256C298.408 813.608 298.408 813.608 300.864 819.176C302.552 820.464 302.552 820.464 304.352 821.392C305.848 822.248 305.848 822.248 307.048 824.552C307.248 825.392 307.248 825.392 307.448 826.248C304.376 827 301.744 827.064 298.568 826.8C297.752 826.736 296.936 826.672 296.088 826.608C293.912 826.264 292.544 825.672 290.616 824.648C290.544 818.12 290.488 811.608 290.456 805.048C290.432 802.016 290.416 798.984 290.376 795.928C290.344 793 290.32 790.072 290.312 787.128C290.312 786.016 290.296 784.896 290.28 783.784C290.256 782.216 290.256 780.656 290.256 779.096C290.248 778.2 290.24 777.312 290.232 776.392C290.616 774.192 290.616 774.192 292.104 772.68C293.816 771.792 293.816 771.792 295.968 771.944L296 772Z" fill="white"/>
<path d="M739.2 631.2C739.32 639.36 739.44 647.6 739.552 655.84C739.608 659.64 739.664 663.448 739.72 667.28C739.776 670.952 739.824 674.624 739.872 678.32C739.896 679.728 739.912 681.128 739.936 682.528C739.968 684.488 739.992 686.456 740.016 688.416C740.024 689 740.04 689.576 740.048 690.176C740.072 692.656 739.992 694.52 739.2 696.888C738.448 697.024 738.448 697.024 737.68 697.168C735.424 697.592 733.16 698.016 730.896 698.44C729.72 698.656 729.72 698.656 728.512 698.88C727.384 699.096 727.384 699.096 726.232 699.312C725.536 699.44 724.84 699.568 724.12 699.704C722.376 700.024 722.376 700.024 720.8 700.888C719.2 700.92 717.6 700.92 716 700.888C714.816 698.52 715.152 696.296 715.2 693.688C715.624 693.92 716.048 694.152 716.488 694.392C717.336 694.832 717.336 694.832 718.2 695.288C719.032 695.736 719.032 695.736 719.888 696.184C723.512 697.672 726.92 696.704 730.368 695.288C731.592 692.88 731.592 692.88 731.968 690.488H733.568C733.608 686.752 733.64 683.008 733.656 679.288C733.664 678.024 733.672 676.76 733.688 675.496C733.76 668.648 733.664 661.816 733.008 655.016C732.952 654.184 732.952 654.184 732.88 653.328C732.424 649.248 731.024 647.52 727.968 644.928C726.592 643.36 725.288 641.744 723.968 640.128C726.048 638.656 728.128 637.192 730.216 635.728C731.104 635.096 731.104 635.096 732.008 634.456C732.864 633.864 732.864 633.864 733.736 633.256C734.256 632.888 734.784 632.512 735.32 632.136C736.768 631.328 736.768 631.328 739.168 631.328L739.2 631.2Z" fill="white"/>
<path d="M266.4 697.6C266.928 698.224 267.456 698.856 268 699.504C270.992 702.12 272.944 702.48 276.8 703.2V704.8H278.4L277.6 706.4L278.4 707.2V710.4C278.88 710.616 279.36 710.832 279.848 711.048C281.576 711.984 282.688 712.952 284 714.4L285.6 712.8C286.408 714.232 287.2 715.664 288 717.104C288.448 717.896 288.888 718.696 289.352 719.52C290.4 721.6 290.4 721.6 290.4 723.2H292V724.8C292.792 725.064 293.584 725.328 294.4 725.6C294.496 726.424 294.6 727.248 294.704 728.096C295.152 730.896 295.832 733.344 296.8 736L296 736.8C298.288 737.56 299.664 737.696 302.032 737.68C302.768 737.672 303.504 737.672 304.264 737.672C305.056 737.664 305.848 737.656 306.664 737.648C307.48 737.648 308.296 737.64 309.144 737.64C312.64 737.624 316.144 737.608 319.624 737.584C322.176 737.568 324.736 737.56 327.288 737.552C328.464 737.544 328.464 737.544 329.672 737.528C333.736 737.512 337.576 737.696 341.592 738.4V739.2C336.208 740.032 330.952 740.064 325.512 739.96C324.6 739.944 323.68 739.928 322.744 739.912C320.816 739.88 318.888 739.848 316.96 739.808C314.024 739.752 311.088 739.704 308.16 739.664C306.28 739.632 304.4 739.592 302.52 739.56C301.648 739.544 300.784 739.536 299.888 739.52C287.728 739.256 287.728 739.256 283.648 736.144C282.304 734.328 281.224 732.552 280.2 730.544C279.816 729.792 279.424 729.04 279.032 728.264C278.624 727.472 278.224 726.672 277.808 725.848C276.96 724.192 276.112 722.528 275.256 720.872C274.632 719.64 274.632 719.64 273.992 718.384C272.864 716.208 271.72 714.056 270.56 711.904C270.232 711.288 269.896 710.68 269.552 710.048C268.944 708.912 268.328 707.784 267.704 706.656C266.232 703.92 265.16 701.496 264.76 698.416L266.36 697.616L266.4 697.6Z" fill="white"/>
<path d="M183.2 772.8C183.76 772.776 184.32 772.76 184.896 772.736C185.392 772.824 185.888 772.912 186.4 773C188.344 775.912 188.128 777.568 188 781H180.8L181.6 783.4C182.376 783.648 183.152 783.896 183.952 784.152C186.4 785 186.4 785 187.344 786.408C188.088 788.448 188.192 789.992 188.184 792.16V794.536C188.176 795.384 188.168 796.224 188.16 797.088C188.152 797.952 188.152 798.816 188.152 799.712C188.144 802.472 188.12 805.24 188.096 808.032C188.088 809.904 188.088 811.776 188.08 813.656C188.064 818.248 188.032 822.856 188 827.416C186.832 827.44 185.664 827.456 184.496 827.464C183.848 827.472 183.2 827.488 182.528 827.496C180.8 827.416 180.8 827.416 179.2 826.616C178.328 815.256 178.304 803.976 178.352 792.536C178.352 790.704 178.36 788.88 178.36 787.056C178.368 782.632 178.384 778.176 178.4 773.776C180.168 772.888 181.24 772.816 183.2 772.776V772.8Z" fill="white"/>
<path d="M218.4 792C222.336 795.504 223.056 799.96 223.352 804.96C223.504 813.36 223.504 813.36 221.6 816.8C218.44 818.992 214.904 819.032 211.2 818.4C208.576 817.056 206.848 815.272 205.496 812.632C203.976 807.768 203.704 801.272 205.56 796.472C206.96 794.376 208.576 792.976 210.704 791.64C213.568 791.096 215.584 791.272 218.4 792.04V792Z" fill="#44527B"/>
<path d="M484 504H484.8C484.84 510.048 484.872 516.08 484.888 522.16C484.896 524.216 484.904 526.272 484.92 528.328C484.944 531.288 484.952 534.248 484.96 537.208C484.968 538.128 484.976 539.04 484.984 539.984C484.984 544.584 484.776 548.464 483.2 552.784C480.888 552.176 479.48 551.792 477.6 550.384C476.328 547.816 475.736 545.192 475.2 542.384C475.056 541.616 474.904 540.84 474.752 540.048C473.608 532.048 474.464 523.808 475.152 515.808C475.216 515 475.288 514.192 475.36 513.352C475.896 507.528 475.896 507.528 476.8 504.792H478.4V506.392C480.384 507.184 480.384 507.184 482.4 507.992V509.592H484V503.992V504Z" fill="white"/>
<path d="M473.6 783.2C475.984 783.36 475.984 783.36 478.368 783.512C479.376 785.536 479.264 786.92 479.256 789.184V791.76C479.256 792.68 479.248 793.6 479.24 794.544V797.392L479.216 806.432C479.208 808.464 479.208 810.496 479.208 812.536C479.192 817.536 479.184 822.536 479.168 827.496C477.848 827.384 476.528 827.264 475.216 827.144C474.48 827.08 473.752 827.016 472.992 826.952C471.168 826.696 471.168 826.696 470.368 825.896C470.256 824.688 470.2 823.472 470.16 822.256C470.136 821.48 470.112 820.712 470.088 819.912C470.072 819.064 470.048 818.224 470.032 817.352C469.992 816.064 469.992 816.064 469.96 814.744C469.912 812.92 469.872 811.088 469.832 809.264C469.768 806.464 469.68 803.672 469.6 800.864C469.56 799.096 469.52 797.32 469.48 795.544C469.448 794.712 469.424 793.872 469.392 793.008C469.384 792.224 469.368 791.44 469.352 790.64C469.336 789.952 469.32 789.264 469.304 788.56C469.688 785.808 470.752 783.72 473.6 783.176V783.2Z" fill="white"/>
<path d="M811.2 564C813.368 565.544 813.952 567.016 814.4 569.6H812.8L812 572C811.752 572.696 811.752 572.696 811.504 573.4C811.064 576.008 811.48 578.232 812 580.8L813.6 582.4C814.32 587.328 813.512 592.88 812 597.6C809.504 598.848 807.48 598.12 804.8 597.6L802.4 596V594.4C801.888 594.288 801.376 594.168 800.848 594.048C799.2 593.6 799.2 593.6 798.4 592.8C798.344 590.128 798.4 587.472 798.448 584.8C798.576 582.464 798.576 582.464 797.6 580.8C797.544 579.432 797.536 578.064 797.552 576.704C797.56 575.968 797.568 575.24 797.568 574.496C797.584 573.936 797.592 573.376 797.6 572.8C799.152 573.448 799.152 573.448 800.8 574.4L801.6 576.8C801.928 576.072 802.264 575.344 802.6 574.6C804.24 571.56 805.64 569.32 809 568.2C809.464 568.136 809.92 568.072 810.4 568C808.552 567.736 806.704 567.472 804.8 567.2L805.6 564.8C807.64 563.784 808.936 563.776 811.2 564Z" fill="white"/>
<path d="M236 564.8C237.944 564.808 239.888 564.808 241.84 564.808C246.56 564.816 251.28 564.832 256 564.848V566.448C256.792 566.848 256.792 566.848 257.6 567.248C258.416 568.032 259.216 568.832 260 569.648C254.808 571.336 250.24 572.256 244.8 572.08C242.2 572.048 239.68 572.264 237.08 572.496C228.44 573.144 219.88 572.52 211.24 572.048L210.44 570.448C208.016 569.92 208.016 569.92 205.64 569.648V568.048L199.24 567.248C207.72 561.568 226.2 564.768 236.04 564.8H236Z" fill="white"/>
<path d="M350.4 800C351.008 799.984 351.608 799.968 352.232 799.952C355.944 799.928 358.248 800.264 361.272 802.6C362.72 804.04 362.312 806.104 362.376 808.048C362.416 808.896 362.456 809.744 362.496 810.616C362.072 813 362.072 813 360.616 814.896C356.808 816.848 353.288 816.568 349.096 816.448C348.28 816.44 347.464 816.432 346.624 816.424C340.624 816.336 340.624 816.336 339.688 815.4C339.592 813.736 339.552 812.064 339.544 810.4C339.528 809.488 339.52 808.576 339.504 807.64C339.688 805.032 340.04 803.288 341.288 801C344.336 799.984 347.216 800.024 350.408 800H350.4Z" fill="#44527B"/>
<path d="M304.8 635.2C306.8 637.024 308.024 638.864 309.312 641.232C309.704 641.952 310.096 642.672 310.496 643.416C310.912 644.184 311.328 644.96 311.752 645.752C312.392 646.936 312.392 646.936 313.048 648.152C315.768 653.2 318.376 658.312 320.904 663.432C322.784 667.24 324.808 670.952 326.896 674.632C327.2 675.168 327.504 675.696 327.808 676.248C329.176 678.656 330.56 681.048 331.976 683.432C332.432 684.208 332.88 684.984 333.352 685.784C333.752 686.448 334.152 687.112 334.56 687.8C335.2 689.584 335.2 689.584 334.512 691.424C334.216 691.872 333.912 692.32 333.6 692.784C329.96 689.968 327.312 687.112 324.72 683.344C324.368 682.848 324.024 682.352 323.664 681.84C320.112 676.696 317.544 671.68 316.016 665.6H314.416C313.984 664.728 313.56 663.848 313.12 662.952C311.352 659.408 309.44 655.944 307.512 652.472C305.608 648.832 304.544 646.464 305.168 642.312C305.552 639.648 305.632 637.736 304.816 635.16L304.8 635.2Z" fill="white"/>
<path d="M1136 781.6C1138.62 783.416 1139.62 784.848 1140.26 788.008C1140.57 794.336 1140.57 794.336 1138.21 797.128C1134.88 798.952 1132.16 798.864 1128.45 798.752H1126.46C1121.62 798.68 1121.62 798.68 1119.8 796.856C1119.58 794.36 1119.58 794.36 1119.6 791.352C1119.6 790.368 1119.59 789.376 1119.58 788.36C1119.9 784.4 1119.9 784.4 1121.4 782.456C1125.85 780.088 1131.32 779.688 1136.04 781.592L1136 781.6Z" fill="#44527B"/>
<path d="M146.4 780.8C146.968 780.776 147.536 780.752 148.128 780.728C151.024 780.696 152.808 780.968 155.336 782.416C157.24 784.576 157.432 785.464 157.296 788.304C157.28 788.984 157.264 789.672 157.248 790.376C156.952 792.248 156.952 792.248 155.352 794.648C151.88 795.92 148.096 795.6 144.472 795.6C143.776 795.608 143.08 795.616 142.36 795.632H140.344C139.736 795.64 139.128 795.64 138.504 795.648C136.976 795.448 136.976 795.448 135.376 793.848C135.312 791.68 135.312 791.68 135.528 789.104C135.584 788.248 135.648 787.4 135.712 786.528C136.208 784.088 136.624 783.32 138.576 781.848C141.064 780.608 143.688 780.84 146.424 780.8H146.4Z" fill="#44527B"/>
<path d="M349.6 780.8C350.632 780.776 350.632 780.776 351.68 780.752C354.8 780.752 356.672 780.768 359.304 782.512C360.656 784.68 360.856 785.92 360.8 788.448V790.56C360.624 791.448 360.624 791.448 360.448 792.352C358.008 793.976 357.528 794.152 354.776 794.136C354.152 794.136 353.52 794.128 352.88 794.128C351.896 794.112 351.896 794.112 350.896 794.096H348.936C343.096 794.056 343.096 794.056 340.456 793.152C339.48 791.184 339.496 789.792 339.456 787.6C339.44 786.896 339.416 786.2 339.392 785.48C340.152 779.928 345.2 780.76 349.632 780.8H349.6Z" fill="#44527B"/>
<path d="M702.4 783.2C706.104 786.984 707.36 791.6 709 796.48C709.288 797.32 709.584 798.16 709.88 799.024C712 805.24 712 805.24 712 807.984H696.8C695.768 804.896 696.44 803.568 697.4 800.48C698.848 795.672 700.048 790.88 701.112 785.92C701.6 783.96 701.6 783.96 702.4 783.16V783.2Z" fill="#44527B"/>
<path d="M934.4 808C935.192 808.264 935.984 808.528 936.8 808.8C940.632 808.944 944.224 808.616 948 808V809.6C948.792 809.864 949.584 810.128 950.4 810.4V812H948.8L948 814.4C946.608 815.656 946.608 815.656 944.896 816.896C944.344 817.312 943.784 817.728 943.208 818.16C939.536 820.544 935.432 820.592 931.208 820C928.4 818.056 927.464 816.776 926.408 813.552C926.408 811.2 926.408 811.2 927.208 809.296C929.584 807.368 931.44 807.736 934.408 808H934.4Z" fill="#44527B"/>
<path d="M232.8 633.6L233.6 636H235.2C235.984 637.432 236.768 638.864 237.552 640.304C238.208 641.496 238.208 641.496 238.872 642.72C239.528 643.936 240.184 645.16 240.8 646.4H243.2V648H245.6C249.144 651.96 249.304 655.64 249.6 660.8C249.968 664.296 250.448 667.76 251.2 671.2H252.8C253.336 672.232 253.872 673.264 254.4 674.304C254.696 674.872 254.992 675.448 255.296 676.04C256 677.6 256 677.6 256 679.2L257.6 680C259.2 681.6 259.2 681.6 259.296 683.696C259.264 684.328 259.232 684.952 259.2 685.6H260.8C261.808 687.928 262.4 689.44 262.4 692C263.192 692.4 263.192 692.4 264 692.8C264.584 694.384 265.12 695.984 265.6 697.6C264.808 698 264.808 698 264 698.4C262.184 694.92 260.36 691.432 258.544 687.92C256.288 683.592 254.032 679.28 251.76 674.96C244.76 661.6 238.08 648.16 232 634.4L232.8 633.6Z" fill="white"/>
<path d="M747.2 610.4C748.752 611.048 748.752 611.048 750.352 612.648C751.792 617.336 752.256 621.768 752.448 626.648C752.48 627.304 752.512 627.968 752.544 628.64C752.616 630.248 752.688 631.848 752.752 633.448C748.432 631.44 744.88 629.704 741.552 626.248H738.352C738.584 625.688 738.808 625.128 739.048 624.552C739.672 622.968 740.232 621.368 740.752 619.752C741.552 617.448 741.552 617.448 743.152 615.048V612.648C744.44 610.84 744.936 610.192 747.2 610.4Z" fill="white"/>
<path d="M349.6 717.6C353.904 722.984 356.408 729.12 356.8 736C351.544 737.84 347.2 738.672 341.6 738.4L343.2 736.8C344.008 734.312 344.192 733.216 343.104 730.8C342.4 728.8 342.4 728.8 343.448 726.6C344.792 724.808 345.416 724.128 347.248 722.896C347.76 722.472 348.272 722.04 348.8 721.6V719.2L349.6 717.6Z" fill="white"/>
<path d="M790.4 573.6L791.2 575.2C791.992 574.936 792.784 574.672 793.6 574.4L794.4 592.8L779.2 585.6C780.56 580.144 780.56 580.144 782.752 578.8C783.768 578.208 783.768 578.208 784.8 577.6L786.4 575.2C788.496 574.248 788.496 574.248 790.4 573.6Z" fill="white"/>
<path d="M937.6 792C940.488 794.36 942.08 796.44 943.2 800C942.408 801.168 942.408 801.168 940.8 802.4C938.568 802.704 936.488 802.88 934.248 802.952C933.648 802.976 933.048 803.008 932.432 803.032C930.952 803.096 929.48 803.152 928 803.2V801.6H926.4C927.328 794.784 927.328 794.784 930.6 792.16C933.416 790.944 934.696 791.04 937.6 792.008V792Z" fill="#44527B"/>
<path d="M552.8 791.2C555.48 793.648 556.712 795.048 557.048 798.704C556.968 799.392 556.888 800.088 556.8 800.8C553.56 802.336 550.968 802.592 547.36 802.552C546.44 802.544 545.52 802.536 544.576 802.536C542.36 802.4 542.36 802.4 541.56 801.6C541.696 798.088 542.008 796.416 544.312 793.696C547.256 791.256 548.92 790.672 552.792 791.2H552.8Z" fill="#44527B"/>
<path d="M805.6 791.2C808.64 793.4 809.6 795.096 811.152 798.496V801.696C808.136 802.704 805.336 802.584 802.192 802.552C801.592 802.544 800.992 802.544 800.376 802.536C798.896 802.528 797.416 802.512 795.944 802.496C795.232 800.544 795.008 799.632 795.8 797.672C800.84 789.84 800.84 789.84 805.56 791.2H805.6Z" fill="#44527B"/>
<path d="M732 629.6C730.24 631.504 728.432 632.824 726.216 634.16C725.576 634.552 724.928 634.936 724.272 635.336C723.6 635.736 722.936 636.136 722.248 636.552C721.576 636.96 720.896 637.368 720.2 637.792C718.536 638.792 716.872 639.8 715.2 640.8C713.952 638.392 713.088 636.328 712.8 633.6L714.4 632H716.8V630.4C719.048 629.904 719.048 629.904 721.6 629.6L724 631.2L725.504 630.448C728.208 629.096 729.064 628.72 732 629.6Z" fill="white"/>
<path d="M484 556C484.416 556.392 484.84 556.784 485.272 557.192C487.816 558.784 489.488 558.648 492.472 558.576C493.496 558.56 494.52 558.552 495.568 558.536C496.648 558.504 497.72 558.48 498.8 558.448C500.912 558.4 503.016 558.36 505.128 558.328C506.056 558.304 506.992 558.28 507.96 558.256C510.328 558.392 511.608 558.752 513.6 560C510.624 561.984 508.344 561.808 504.88 561.752C503.976 561.736 503.976 561.736 503.056 561.728C487.056 561.48 487.056 561.48 484.016 558.4V556H484Z" fill="white"/>
<path d="M474.4 772.8C475.24 772.784 475.24 772.784 476.096 772.768C477.6 772.952 477.6 772.952 479.2 774.552C479.416 776.704 479.272 778.784 479.2 780.952C476.8 781.752 476.8 781.752 474 780.752C469.928 778.712 469.928 778.712 468.8 776.952C468.952 775.248 468.952 775.248 469.6 773.752C471.384 772.856 472.424 772.816 474.4 772.8Z" fill="white"/>
<path d="M1040.8 730.4V732H1043.2V733.6L1044.8 734.4C1040.62 735.368 1036.98 735.008 1032.8 734.4V732C1035.52 730.328 1037.64 730.256 1040.8 730.4Z" fill="white"/>
<path d="M1087.2 673.6C1087.93 673.608 1088.66 673.616 1089.41 673.624C1089.97 673.632 1090.53 673.64 1091.1 673.648C1091.36 674.44 1091.63 675.232 1091.9 676.048C1085.56 676.448 1085.56 676.448 1079.1 676.848C1079.9 676.584 1080.69 676.32 1081.5 676.048V674.448C1083.52 673.44 1084.95 673.568 1087.2 673.6Z" fill="white"/>
<path d="M1133.6 685.6C1137.24 685.456 1139.9 685.6 1143.2 687.2L1142.4 690.4L1139.2 689.6V688L1133.6 686.4V685.6Z" fill="white"/>
</g>
<defs>
<clipPath id="clip0_54_497">
<rect width="1280" height="1280" fill="white"/>
</clipPath>
</defs>
</svg>
